<svg xmlns="http://www.w3.org/2000/svg" xmlns:xlink="http://www.w3.org/1999/xlink" width="310" zoomAndPan="magnify" viewBox="0 0 232.5 149.999998" height="200" preserveAspectRatio="xMidYMid meet" version="1.0"><defs><g/><clipPath id="3b746d2f68"><path d="M 197 88 L 232 88 L 232 126 L 197 126 Z M 197 88 " clip-rule="nonzero"/></clipPath><clipPath id="70874807a6"><path d="M 194 87 L 232 87 L 232 125 L 194 125 Z M 194 87 " clip-rule="nonzero"/></clipPath></defs><g fill="#a6a6a6" fill-opacity="0.302"><g transform="translate(8.959875, 63.301758)"><g><path d="M 32.691406 -18.644531 C 29.773438 -10.753906 23.183594 -7.769531 18.210938 -7.769531 C 13.300781 -7.769531 8.453125 -10.691406 8.453125 -14.792969 C 8.453125 -15.726562 8.578125 -16.78125 8.949219 -17.839844 L 16.78125 -39.652344 C 18.273438 -43.757812 20.820312 -44.378906 22.3125 -44.378906 C 23.742188 -44.378906 24.738281 -43.507812 24.738281 -41.644531 C 24.738281 -40.773438 24.488281 -39.652344 23.992188 -38.410156 C 23.804688 -37.976562 23.742188 -37.539062 23.742188 -37.105469 C 23.742188 -34.929688 25.855469 -33.128906 28.28125 -33.128906 C 30.457031 -33.128906 32.878906 -34.621094 34 -38.722656 C 34.433594 -40.335938 34.621094 -41.828125 34.621094 -43.132812 C 34.621094 -49.972656 29.210938 -53.949219 22.125 -53.949219 C 17.589844 -53.949219 10.566406 -52.085938 7.273438 -42.761719 L -0.496094 -20.574219 C -1.179688 -18.644531 -1.554688 -16.53125 -1.554688 -14.667969 C -1.554688 -6.527344 5.90625 0 16.71875 0 C 25.359375 0 36.113281 -4.414062 39.964844 -16.59375 C 40.089844 -17.09375 40.152344 -17.527344 40.152344 -17.898438 C 40.152344 -20.074219 38.226562 -21.320312 36.296875 -21.320312 C 34.683594 -21.320312 33.128906 -20.511719 32.691406 -18.644531 Z M 32.691406 -18.644531 "/></g></g></g><g fill="#a6a6a6" fill-opacity="0.302"><g transform="translate(39.35197, 63.301758)"><g><path d="M 16.71875 -42.203125 C 19.515625 -42.203125 21.816406 -44.503906 21.816406 -47.359375 C 21.816406 -50.15625 19.515625 -52.394531 16.71875 -52.394531 C 13.921875 -52.394531 11.621094 -50.15625 11.621094 -47.359375 C 11.621094 -44.503906 13.921875 -42.203125 16.71875 -42.203125 Z M 8.328125 -10.503906 L 15.164062 -30.019531 C 15.414062 -30.828125 15.726562 -31.699219 15.726562 -32.320312 C 15.726562 -35.054688 13.675781 -36.484375 11.5625 -36.484375 C 9.632812 -36.484375 7.582031 -35.117188 6.589844 -32.195312 C 4.597656 -26.351562 1.988281 -18.957031 0 -13.175781 C -0.371094 -11.933594 -0.871094 -10.253906 -0.871094 -9.199219 C -0.871094 -3.355469 3.976562 0 9.695312 0 C 15.785156 0 22.5 -3.730469 26.851562 -16.59375 C 26.976562 -16.96875 27.035156 -17.339844 27.035156 -17.714844 C 27.035156 -19.640625 25.171875 -20.820312 23.308594 -20.820312 C 21.628906 -20.820312 19.953125 -19.953125 19.207031 -18.023438 C 16.285156 -9.945312 12.988281 -7.394531 10.503906 -7.394531 C 9.074219 -7.394531 8.140625 -8.328125 8.140625 -9.507812 C 8.140625 -9.820312 8.203125 -10.132812 8.328125 -10.503906 Z M 8.328125 -10.503906 "/></g></g></g><g fill="#a6a6a6" fill-opacity="0.302"><g transform="translate(56.505787, 63.301758)"><g><path d="M 34.683594 -17.898438 C 31.945312 -10.441406 28.527344 -7.394531 25.605469 -7.394531 C 24.488281 -7.394531 23.867188 -7.957031 23.867188 -9.011719 C 23.867188 -9.449219 23.992188 -9.945312 24.179688 -10.566406 L 29.027344 -24.363281 C 29.460938 -25.605469 29.710938 -26.726562 29.710938 -27.78125 C 29.710938 -32.753906 25.484375 -36.484375 20.511719 -36.484375 C 18.085938 -36.484375 16.160156 -35.925781 14.542969 -34.742188 C 14.171875 -35.863281 12.617188 -36.484375 10.9375 -36.484375 C 9.199219 -36.484375 7.519531 -35.675781 6.898438 -33.9375 L -3.480469 -4.910156 C -3.667969 -4.351562 -3.730469 -3.855469 -3.730469 -3.355469 C -3.730469 -1.054688 -1.925781 0.125 0.0625 0.125 C 2.238281 0.125 4.722656 -1.242188 5.65625 -4.039062 C 7.832031 -10.070312 10.816406 -18.585938 12.929688 -24.550781 C 14.605469 -27.660156 16.78125 -29.148438 18.523438 -29.148438 C 19.640625 -29.148438 20.449219 -28.40625 20.449219 -27.222656 C 20.449219 -26.789062 20.324219 -26.230469 20.136719 -25.667969 L 15.601562 -12.867188 C 15.101562 -11.4375 14.792969 -10.070312 14.792969 -8.765625 C 14.792969 -3.046875 19.515625 0 24.800781 0 C 31.140625 0 37.914062 -4.289062 42.203125 -16.410156 C 42.390625 -16.90625 42.511719 -17.402344 42.511719 -17.839844 C 42.511719 -19.828125 40.710938 -20.882812 38.847656 -20.882812 C 37.167969 -20.882812 35.304688 -19.953125 34.683594 -17.898438 Z M 34.683594 -17.898438 "/></g></g></g><g fill="#a6a6a6" fill-opacity="0.302"><g transform="translate(89.135333, 63.301758)"><g><path d="M 31.449219 -17.527344 C 28.714844 -10.316406 22.1875 -7.394531 16.90625 -7.394531 C 12.367188 -7.394531 9.507812 -9.570312 9.507812 -12.429688 C 9.507812 -12.988281 9.570312 -13.550781 9.820312 -14.171875 L 10.316406 -15.351562 C 12.121094 -14.234375 14.359375 -13.488281 16.84375 -13.488281 C 22.5 -13.488281 27.472656 -17.03125 29.148438 -22.625 C 29.460938 -23.804688 29.648438 -24.984375 29.648438 -26.042969 C 29.648438 -31.945312 24.984375 -36.484375 17.960938 -36.484375 C 12.429688 -36.484375 7.023438 -33.253906 4.847656 -27.035156 L 1.179688 -16.410156 C 0.683594 -14.917969 0.371094 -13.425781 0.371094 -11.996094 C 0.371094 -4.597656 7.335938 0 16.410156 0 C 25.046875 0 34.867188 -4.226562 38.96875 -16.097656 C 39.15625 -16.59375 39.21875 -17.03125 39.21875 -17.402344 C 39.21875 -19.328125 37.480469 -20.386719 35.613281 -20.386719 C 33.875 -20.386719 32.007812 -19.453125 31.449219 -17.527344 Z M 17.777344 -29.148438 C 19.515625 -29.148438 20.636719 -27.71875 20.636719 -25.917969 C 20.636719 -25.421875 20.574219 -24.921875 20.386719 -24.425781 C 19.765625 -22.375 17.898438 -21.628906 16.035156 -21.628906 C 14.855469 -21.628906 13.675781 -21.878906 12.804688 -22.375 L 14.109375 -26.105469 C 14.792969 -28.03125 16.347656 -29.148438 17.777344 -29.148438 Z M 17.777344 -29.148438 "/></g></g></g><g fill="#a6a6a6" fill-opacity="0.502"><g transform="translate(6.421738, 61.952206)"><g><path d="M 32.691406 -18.644531 C 29.773438 -10.753906 23.183594 -7.769531 18.210938 -7.769531 C 13.300781 -7.769531 8.453125 -10.691406 8.453125 -14.792969 C 8.453125 -15.726562 8.578125 -16.78125 8.949219 -17.839844 L 16.78125 -39.652344 C 18.273438 -43.757812 20.820312 -44.378906 22.3125 -44.378906 C 23.742188 -44.378906 24.738281 -43.507812 24.738281 -41.644531 C 24.738281 -40.773438 24.488281 -39.652344 23.992188 -38.410156 C 23.804688 -37.976562 23.742188 -37.539062 23.742188 -37.105469 C 23.742188 -34.929688 25.855469 -33.128906 28.28125 -33.128906 C 30.457031 -33.128906 32.878906 -34.621094 34 -38.722656 C 34.433594 -40.335938 34.621094 -41.828125 34.621094 -43.132812 C 34.621094 -49.972656 29.210938 -53.949219 22.125 -53.949219 C 17.589844 -53.949219 10.566406 -52.085938 7.273438 -42.761719 L -0.496094 -20.574219 C -1.179688 -18.644531 -1.554688 -16.53125 -1.554688 -14.667969 C -1.554688 -6.527344 5.90625 0 16.71875 0 C 25.359375 0 36.113281 -4.414062 39.964844 -16.59375 C 40.089844 -17.09375 40.152344 -17.527344 40.152344 -17.898438 C 40.152344 -20.074219 38.226562 -21.320312 36.296875 -21.320312 C 34.683594 -21.320312 33.128906 -20.511719 32.691406 -18.644531 Z M 32.691406 -18.644531 "/></g></g></g><g fill="#a6a6a6" fill-opacity="0.502"><g transform="translate(36.813832, 61.952206)"><g><path d="M 16.71875 -42.203125 C 19.515625 -42.203125 21.816406 -44.503906 21.816406 -47.359375 C 21.816406 -50.15625 19.515625 -52.394531 16.71875 -52.394531 C 13.921875 -52.394531 11.621094 -50.15625 11.621094 -47.359375 C 11.621094 -44.503906 13.921875 -42.203125 16.71875 -42.203125 Z M 8.328125 -10.503906 L 15.164062 -30.019531 C 15.414062 -30.828125 15.726562 -31.699219 15.726562 -32.320312 C 15.726562 -35.054688 13.675781 -36.484375 11.5625 -36.484375 C 9.632812 -36.484375 7.582031 -35.117188 6.589844 -32.195312 C 4.597656 -26.351562 1.988281 -18.957031 0 -13.175781 C -0.371094 -11.933594 -0.871094 -10.253906 -0.871094 -9.199219 C -0.871094 -3.355469 3.976562 0 9.695312 0 C 15.785156 0 22.5 -3.730469 26.851562 -16.59375 C 26.976562 -16.96875 27.035156 -17.339844 27.035156 -17.714844 C 27.035156 -19.640625 25.171875 -20.820312 23.308594 -20.820312 C 21.628906 -20.820312 19.953125 -19.953125 19.207031 -18.023438 C 16.285156 -9.945312 12.988281 -7.394531 10.503906 -7.394531 C 9.074219 -7.394531 8.140625 -8.328125 8.140625 -9.507812 C 8.140625 -9.820312 8.203125 -10.132812 8.328125 -10.503906 Z M 8.328125 -10.503906 "/></g></g></g><g fill="#a6a6a6" fill-opacity="0.502"><g transform="translate(53.96765, 61.952206)"><g><path d="M 34.683594 -17.898438 C 31.945312 -10.441406 28.527344 -7.394531 25.605469 -7.394531 C 24.488281 -7.394531 23.867188 -7.957031 23.867188 -9.011719 C 23.867188 -9.449219 23.992188 -9.945312 24.179688 -10.566406 L 29.027344 -24.363281 C 29.460938 -25.605469 29.710938 -26.726562 29.710938 -27.78125 C 29.710938 -32.753906 25.484375 -36.484375 20.511719 -36.484375 C 18.085938 -36.484375 16.160156 -35.925781 14.542969 -34.742188 C 14.171875 -35.863281 12.617188 -36.484375 10.9375 -36.484375 C 9.199219 -36.484375 7.519531 -35.675781 6.898438 -33.9375 L -3.480469 -4.910156 C -3.667969 -4.351562 -3.730469 -3.855469 -3.730469 -3.355469 C -3.730469 -1.054688 -1.925781 0.125 0.0625 0.125 C 2.238281 0.125 4.722656 -1.242188 5.65625 -4.039062 C 7.832031 -10.070312 10.816406 -18.585938 12.929688 -24.550781 C 14.605469 -27.660156 16.78125 -29.148438 18.523438 -29.148438 C 19.640625 -29.148438 20.449219 -28.40625 20.449219 -27.222656 C 20.449219 -26.789062 20.324219 -26.230469 20.136719 -25.667969 L 15.601562 -12.867188 C 15.101562 -11.4375 14.792969 -10.070312 14.792969 -8.765625 C 14.792969 -3.046875 19.515625 0 24.800781 0 C 31.140625 0 37.914062 -4.289062 42.203125 -16.410156 C 42.390625 -16.90625 42.511719 -17.402344 42.511719 -17.839844 C 42.511719 -19.828125 40.710938 -20.882812 38.847656 -20.882812 C 37.167969 -20.882812 35.304688 -19.953125 34.683594 -17.898438 Z M 34.683594 -17.898438 "/></g></g></g><g fill="#a6a6a6" fill-opacity="0.502"><g transform="translate(86.597196, 61.952206)"><g><path d="M 31.449219 -17.527344 C 28.714844 -10.316406 22.1875 -7.394531 16.90625 -7.394531 C 12.367188 -7.394531 9.507812 -9.570312 9.507812 -12.429688 C 9.507812 -12.988281 9.570312 -13.550781 9.820312 -14.171875 L 10.316406 -15.351562 C 12.121094 -14.234375 14.359375 -13.488281 16.84375 -13.488281 C 22.5 -13.488281 27.472656 -17.03125 29.148438 -22.625 C 29.460938 -23.804688 29.648438 -24.984375 29.648438 -26.042969 C 29.648438 -31.945312 24.984375 -36.484375 17.960938 -36.484375 C 12.429688 -36.484375 7.023438 -33.253906 4.847656 -27.035156 L 1.179688 -16.410156 C 0.683594 -14.917969 0.371094 -13.425781 0.371094 -11.996094 C 0.371094 -4.597656 7.335938 0 16.410156 0 C 25.046875 0 34.867188 -4.226562 38.96875 -16.097656 C 39.15625 -16.59375 39.21875 -17.03125 39.21875 -17.402344 C 39.21875 -19.328125 37.480469 -20.386719 35.613281 -20.386719 C 33.875 -20.386719 32.007812 -19.453125 31.449219 -17.527344 Z M 17.777344 -29.148438 C 19.515625 -29.148438 20.636719 -27.71875 20.636719 -25.917969 C 20.636719 -25.421875 20.574219 -24.921875 20.386719 -24.425781 C 19.765625 -22.375 17.898438 -21.628906 16.035156 -21.628906 C 14.855469 -21.628906 13.675781 -21.878906 12.804688 -22.375 L 14.109375 -26.105469 C 14.792969 -28.03125 16.347656 -29.148438 17.777344 -29.148438 Z M 17.777344 -29.148438 "/></g></g></g><g fill="#000000" fill-opacity="1"><g transform="translate(3.883601, 60.602655)"><g><path d="M 32.691406 -18.644531 C 29.773438 -10.753906 23.183594 -7.769531 18.210938 -7.769531 C 13.300781 -7.769531 8.453125 -10.691406 8.453125 -14.792969 C 8.453125 -15.726562 8.578125 -16.78125 8.949219 -17.839844 L 16.78125 -39.652344 C 18.273438 -43.757812 20.820312 -44.378906 22.3125 -44.378906 C 23.742188 -44.378906 24.738281 -43.507812 24.738281 -41.644531 C 24.738281 -40.773438 24.488281 -39.652344 23.992188 -38.410156 C 23.804688 -37.976562 23.742188 -37.539062 23.742188 -37.105469 C 23.742188 -34.929688 25.855469 -33.128906 28.28125 -33.128906 C 30.457031 -33.128906 32.878906 -34.621094 34 -38.722656 C 34.433594 -40.335938 34.621094 -41.828125 34.621094 -43.132812 C 34.621094 -49.972656 29.210938 -53.949219 22.125 -53.949219 C 17.589844 -53.949219 10.566406 -52.085938 7.273438 -42.761719 L -0.496094 -20.574219 C -1.179688 -18.644531 -1.554688 -16.53125 -1.554688 -14.667969 C -1.554688 -6.527344 5.90625 0 16.71875 0 C 25.359375 0 36.113281 -4.414062 39.964844 -16.59375 C 40.089844 -17.09375 40.152344 -17.527344 40.152344 -17.898438 C 40.152344 -20.074219 38.226562 -21.320312 36.296875 -21.320312 C 34.683594 -21.320312 33.128906 -20.511719 32.691406 -18.644531 Z M 32.691406 -18.644531 "/></g></g></g><g fill="#000000" fill-opacity="1"><g transform="translate(34.275695, 60.602655)"><g><path d="M 16.71875 -42.203125 C 19.515625 -42.203125 21.816406 -44.503906 21.816406 -47.359375 C 21.816406 -50.15625 19.515625 -52.394531 16.71875 -52.394531 C 13.921875 -52.394531 11.621094 -50.15625 11.621094 -47.359375 C 11.621094 -44.503906 13.921875 -42.203125 16.71875 -42.203125 Z M 8.328125 -10.503906 L 15.164062 -30.019531 C 15.414062 -30.828125 15.726562 -31.699219 15.726562 -32.320312 C 15.726562 -35.054688 13.675781 -36.484375 11.5625 -36.484375 C 9.632812 -36.484375 7.582031 -35.117188 6.589844 -32.195312 C 4.597656 -26.351562 1.988281 -18.957031 0 -13.175781 C -0.371094 -11.933594 -0.871094 -10.253906 -0.871094 -9.199219 C -0.871094 -3.355469 3.976562 0 9.695312 0 C 15.785156 0 22.5 -3.730469 26.851562 -16.59375 C 26.976562 -16.96875 27.035156 -17.339844 27.035156 -17.714844 C 27.035156 -19.640625 25.171875 -20.820312 23.308594 -20.820312 C 21.628906 -20.820312 19.953125 -19.953125 19.207031 -18.023438 C 16.285156 -9.945312 12.988281 -7.394531 10.503906 -7.394531 C 9.074219 -7.394531 8.140625 -8.328125 8.140625 -9.507812 C 8.140625 -9.820312 8.203125 -10.132812 8.328125 -10.503906 Z M 8.328125 -10.503906 "/></g></g></g><g fill="#000000" fill-opacity="1"><g transform="translate(51.429513, 60.602655)"><g><path d="M 34.683594 -17.898438 C 31.945312 -10.441406 28.527344 -7.394531 25.605469 -7.394531 C 24.488281 -7.394531 23.867188 -7.957031 23.867188 -9.011719 C 23.867188 -9.449219 23.992188 -9.945312 24.179688 -10.566406 L 29.027344 -24.363281 C 29.460938 -25.605469 29.710938 -26.726562 29.710938 -27.78125 C 29.710938 -32.753906 25.484375 -36.484375 20.511719 -36.484375 C 18.085938 -36.484375 16.160156 -35.925781 14.542969 -34.742188 C 14.171875 -35.863281 12.617188 -36.484375 10.9375 -36.484375 C 9.199219 -36.484375 7.519531 -35.675781 6.898438 -33.9375 L -3.480469 -4.910156 C -3.667969 -4.351562 -3.730469 -3.855469 -3.730469 -3.355469 C -3.730469 -1.054688 -1.925781 0.125 0.0625 0.125 C 2.238281 0.125 4.722656 -1.242188 5.65625 -4.039062 C 7.832031 -10.070312 10.816406 -18.585938 12.929688 -24.550781 C 14.605469 -27.660156 16.78125 -29.148438 18.523438 -29.148438 C 19.640625 -29.148438 20.449219 -28.40625 20.449219 -27.222656 C 20.449219 -26.789062 20.324219 -26.230469 20.136719 -25.667969 L 15.601562 -12.867188 C 15.101562 -11.4375 14.792969 -10.070312 14.792969 -8.765625 C 14.792969 -3.046875 19.515625 0 24.800781 0 C 31.140625 0 37.914062 -4.289062 42.203125 -16.410156 C 42.390625 -16.90625 42.511719 -17.402344 42.511719 -17.839844 C 42.511719 -19.828125 40.710938 -20.882812 38.847656 -20.882812 C 37.167969 -20.882812 35.304688 -19.953125 34.683594 -17.898438 Z M 34.683594 -17.898438 "/></g></g></g><g fill="#000000" fill-opacity="1"><g transform="translate(84.059059, 60.602655)"><g><path d="M 31.449219 -17.527344 C 28.714844 -10.316406 22.1875 -7.394531 16.90625 -7.394531 C 12.367188 -7.394531 9.507812 -9.570312 9.507812 -12.429688 C 9.507812 -12.988281 9.570312 -13.550781 9.820312 -14.171875 L 10.316406 -15.351562 C 12.121094 -14.234375 14.359375 -13.488281 16.84375 -13.488281 C 22.5 -13.488281 27.472656 -17.03125 29.148438 -22.625 C 29.460938 -23.804688 29.648438 -24.984375 29.648438 -26.042969 C 29.648438 -31.945312 24.984375 -36.484375 17.960938 -36.484375 C 12.429688 -36.484375 7.023438 -33.253906 4.847656 -27.035156 L 1.179688 -16.410156 C 0.683594 -14.917969 0.371094 -13.425781 0.371094 -11.996094 C 0.371094 -4.597656 7.335938 0 16.410156 0 C 25.046875 0 34.867188 -4.226562 38.96875 -16.097656 C 39.15625 -16.59375 39.21875 -17.03125 39.21875 -17.402344 C 39.21875 -19.328125 37.480469 -20.386719 35.613281 -20.386719 C 33.875 -20.386719 32.007812 -19.453125 31.449219 -17.527344 Z M 17.777344 -29.148438 C 19.515625 -29.148438 20.636719 -27.71875 20.636719 -25.917969 C 20.636719 -25.421875 20.574219 -24.921875 20.386719 -24.425781 C 19.765625 -22.375 17.898438 -21.628906 16.035156 -21.628906 C 14.855469 -21.628906 13.675781 -21.878906 12.804688 -22.375 L 14.109375 -26.105469 C 14.792969 -28.03125 16.347656 -29.148438 17.777344 -29.148438 Z M 17.777344 -29.148438 "/></g></g></g><g fill="#a6a6a6" fill-opacity="0.302"><g transform="translate(8.959875, 125.418172)"><g><path d="M 58.796875 -18.398438 C 56.125 -11.125 52.769531 -7.894531 49.847656 -7.894531 C 48.605469 -7.894531 47.796875 -8.703125 47.796875 -9.945312 C 47.796875 -10.503906 47.984375 -11.1875 48.230469 -11.933594 L 58.238281 -39.28125 C 58.734375 -40.585938 59.046875 -42.015625 59.046875 -43.757812 C 59.046875 -49.597656 54.757812 -53.949219 48.417969 -53.949219 C 44.6875 -53.949219 40.214844 -52.457031 37.292969 -49.414062 C 35.367188 -52.332031 33.5 -53.949219 29.273438 -53.949219 C 25.296875 -53.949219 22.6875 -51.464844 22.4375 -51.152344 C 21.941406 -52.707031 20.199219 -53.949219 17.839844 -53.949219 C 16.035156 -53.949219 13.550781 -53.203125 12.679688 -50.78125 L -3.292969 -6.027344 C -3.542969 -5.40625 -3.542969 -4.847656 -3.542969 -4.289062 C -3.542969 -1.554688 -1.367188 0 1.054688 0 C 3.167969 0 5.46875 -1.242188 6.464844 -3.976562 L 18.460938 -37.417969 C 19.953125 -41.582031 22.25 -43.757812 25.046875 -43.757812 C 28.28125 -43.757812 29.148438 -41.269531 27.410156 -36.421875 L 16.53125 -6.527344 C 16.222656 -5.65625 16.035156 -4.847656 16.035156 -4.164062 C 16.035156 -1.492188 18.210938 0 20.574219 0 C 22.75 0 25.046875 -1.242188 26.042969 -4.039062 L 37.664062 -36.609375 C 39.15625 -40.835938 41.644531 -43.695312 44.6875 -43.695312 C 47.113281 -43.695312 48.730469 -41.582031 47.609375 -38.535156 L 38.910156 -14.480469 C 38.347656 -12.867188 38.039062 -11.125 38.039062 -9.695312 C 38.039062 -3.542969 42.949219 0 48.976562 0 C 55.8125 0 62.339844 -4.476562 66.195312 -16.59375 C 66.316406 -17.09375 66.441406 -17.527344 66.441406 -17.960938 C 66.441406 -20.136719 64.578125 -21.382812 62.714844 -21.382812 C 61.097656 -21.382812 59.542969 -20.449219 58.796875 -18.398438 Z M 58.796875 -18.398438 "/></g></g></g><g fill="#a6a6a6" fill-opacity="0.302"><g transform="translate(65.579908, 125.418172)"><g><path d="M 38.96875 -21.007812 C 37.230469 -21.007812 35.304688 -19.953125 34.558594 -17.589844 C 32.132812 -9.945312 28.21875 -7.394531 25.421875 -7.394531 C 24.363281 -7.394531 23.742188 -7.957031 23.742188 -8.949219 C 23.742188 -9.449219 23.867188 -10.070312 24.054688 -10.753906 L 31.015625 -30.890625 C 31.261719 -31.636719 31.386719 -32.320312 31.386719 -32.941406 C 31.386719 -35.675781 29.148438 -37.105469 26.851562 -37.105469 C 25.109375 -37.105469 23.308594 -36.296875 22.3125 -34.742188 C 21.007812 -35.550781 18.585938 -36.484375 15.414062 -36.484375 C 11.3125 -36.484375 6.835938 -34.246094 5.160156 -29.460938 L -0.683594 -12.742188 C -1.054688 -11.621094 -1.304688 -10.503906 -1.304688 -9.386719 C -1.304688 -4.226562 2.859375 0 8.328125 0 C 11.25 0 14.234375 -1.304688 16.53125 -3.355469 C 18.523438 -0.496094 22.933594 0 24.800781 0 C 29.957031 0 36.855469 -2.609375 40.835938 -12.679688 C 41.707031 -15.101562 42.390625 -16.65625 42.390625 -17.777344 C 42.390625 -19.890625 40.773438 -21.007812 38.96875 -21.007812 Z M 18.460938 -21.628906 L 15.476562 -12.367188 C 14.171875 -8.328125 11.808594 -7.394531 10.503906 -7.394531 C 9.136719 -7.394531 8.453125 -8.265625 8.453125 -9.695312 C 8.453125 -10.503906 8.640625 -11.25 8.824219 -11.808594 L 12.804688 -24.300781 C 13.984375 -28.09375 15.726562 -28.589844 16.71875 -28.589844 C 17.898438 -28.589844 19.207031 -27.410156 19.207031 -25.296875 C 19.207031 -24.363281 18.957031 -23.183594 18.460938 -21.628906 Z M 18.460938 -21.628906 "/></g></g></g><g fill="#a6a6a6" fill-opacity="0.302"><g transform="translate(98.209454, 125.418172)"><g><path d="M 34.683594 -17.898438 C 31.945312 -10.441406 28.527344 -7.394531 25.605469 -7.394531 C 24.488281 -7.394531 23.867188 -7.957031 23.867188 -9.011719 C 23.867188 -9.449219 23.992188 -9.945312 24.179688 -10.566406 L 29.027344 -24.363281 C 29.460938 -25.605469 29.710938 -26.726562 29.710938 -27.78125 C 29.710938 -32.753906 25.484375 -36.484375 20.511719 -36.484375 C 18.085938 -36.484375 16.160156 -35.925781 14.542969 -34.742188 C 14.171875 -35.863281 12.617188 -36.484375 10.9375 -36.484375 C 9.199219 -36.484375 7.519531 -35.675781 6.898438 -33.9375 L -3.480469 -4.910156 C -3.667969 -4.351562 -3.730469 -3.855469 -3.730469 -3.355469 C -3.730469 -1.054688 -1.925781 0.125 0.0625 0.125 C 2.238281 0.125 4.722656 -1.242188 5.65625 -4.039062 C 7.832031 -10.070312 10.816406 -18.585938 12.929688 -24.550781 C 14.605469 -27.660156 16.78125 -29.148438 18.523438 -29.148438 C 19.640625 -29.148438 20.449219 -28.40625 20.449219 -27.222656 C 20.449219 -26.789062 20.324219 -26.230469 20.136719 -25.667969 L 15.601562 -12.867188 C 15.101562 -11.4375 14.792969 -10.070312 14.792969 -8.765625 C 14.792969 -3.046875 19.515625 0 24.800781 0 C 31.140625 0 37.914062 -4.289062 42.203125 -16.410156 C 42.390625 -16.90625 42.511719 -17.402344 42.511719 -17.839844 C 42.511719 -19.828125 40.710938 -20.882812 38.847656 -20.882812 C 37.167969 -20.882812 35.304688 -19.953125 34.683594 -17.898438 Z M 34.683594 -17.898438 "/></g></g></g><g fill="#a6a6a6" fill-opacity="0.302"><g transform="translate(130.839, 125.418172)"><g><path d="M 38.96875 -21.007812 C 37.230469 -21.007812 35.304688 -19.953125 34.558594 -17.589844 C 32.132812 -9.945312 28.21875 -7.394531 25.421875 -7.394531 C 24.363281 -7.394531 23.742188 -7.957031 23.742188 -8.949219 C 23.742188 -9.449219 23.867188 -10.070312 24.054688 -10.753906 L 31.015625 -30.890625 C 31.261719 -31.636719 31.386719 -32.320312 31.386719 -32.941406 C 31.386719 -35.675781 29.148438 -37.105469 26.851562 -37.105469 C 25.109375 -37.105469 23.308594 -36.296875 22.3125 -34.742188 C 21.007812 -35.550781 18.585938 -36.484375 15.414062 -36.484375 C 11.3125 -36.484375 6.835938 -34.246094 5.160156 -29.460938 L -0.683594 -12.742188 C -1.054688 -11.621094 -1.304688 -10.503906 -1.304688 -9.386719 C -1.304688 -4.226562 2.859375 0 8.328125 0 C 11.25 0 14.234375 -1.304688 16.53125 -3.355469 C 18.523438 -0.496094 22.933594 0 24.800781 0 C 29.957031 0 36.855469 -2.609375 40.835938 -12.679688 C 41.707031 -15.101562 42.390625 -16.65625 42.390625 -17.777344 C 42.390625 -19.890625 40.773438 -21.007812 38.96875 -21.007812 Z M 18.460938 -21.628906 L 15.476562 -12.367188 C 14.171875 -8.328125 11.808594 -7.394531 10.503906 -7.394531 C 9.136719 -7.394531 8.453125 -8.265625 8.453125 -9.695312 C 8.453125 -10.503906 8.640625 -11.25 8.824219 -11.808594 L 12.804688 -24.300781 C 13.984375 -28.09375 15.726562 -28.589844 16.71875 -28.589844 C 17.898438 -28.589844 19.207031 -27.410156 19.207031 -25.296875 C 19.207031 -24.363281 18.957031 -23.183594 18.460938 -21.628906 Z M 18.460938 -21.628906 "/></g></g></g><g fill="#a6a6a6" fill-opacity="0.302"><g transform="translate(163.468547, 125.418172)"><g><path d="M 23.804688 -5.40625 L 32.382812 -29.460938 C 32.816406 -30.765625 33.003906 -31.824219 33.003906 -32.628906 C 33.003906 -35.425781 31.078125 -35.988281 30.269531 -36.296875 C 29.894531 -36.421875 29.460938 -36.484375 29.027344 -36.484375 C 27.160156 -36.484375 25.234375 -35.550781 24.488281 -33.375 C 22.375 -35.613281 20.011719 -36.484375 16.71875 -36.484375 C 12.121094 -36.484375 7.273438 -33.875 5.222656 -28.09375 L -0.0625 -13.050781 C -0.496094 -11.746094 -0.746094 -10.378906 -0.746094 -9.136719 C -0.746094 -4.226562 2.671875 -0.933594 6.898438 0 C 1.117188 1.117188 -6.277344 3.355469 -8.140625 9.507812 C -8.453125 10.566406 -8.578125 11.5 -8.578125 12.429688 C -8.578125 18.460938 -2.984375 22.4375 3.109375 22.4375 C 9.261719 22.4375 15.042969 19.144531 17.589844 11.933594 L 20.449219 4.039062 C 29.335938 1.242188 38.472656 -3.605469 42.761719 -16.65625 C 42.949219 -17.15625 43.011719 -17.652344 43.011719 -18.085938 C 43.011719 -20.199219 41.394531 -21.441406 39.53125 -21.441406 C 37.851562 -21.441406 36.050781 -20.386719 35.179688 -17.960938 C 32.878906 -11.621094 28.714844 -7.894531 23.804688 -5.40625 Z M 21.132812 -24.613281 L 16.410156 -11.5 C 15.164062 -9.136719 13.050781 -7.394531 10.9375 -7.394531 C 9.449219 -7.394531 8.328125 -8.140625 8.328125 -9.507812 C 8.328125 -9.820312 8.453125 -10.316406 8.578125 -10.753906 L 14.171875 -26.539062 C 14.792969 -28.28125 16.222656 -29.148438 17.589844 -29.148438 C 19.515625 -29.148438 21.195312 -27.71875 21.195312 -25.484375 C 21.195312 -25.234375 21.195312 -24.921875 21.132812 -24.613281 Z M 9.074219 6.898438 L 7.582031 11.125 C 6.710938 13.425781 4.785156 14.605469 2.921875 14.605469 C 1.492188 14.605469 0.808594 13.734375 0.808594 12.617188 C 0.808594 12.246094 0.933594 11.746094 1.117188 11.3125 C 1.988281 9.136719 5.035156 7.957031 9.074219 6.898438 Z M 9.074219 6.898438 "/></g></g></g><g clip-path="url(#3b746d2f68)"><g fill="#a6a6a6" fill-opacity="0.302"><g transform="translate(196.657456, 125.418172)"><g><path d="M 31.449219 -17.527344 C 28.714844 -10.316406 22.1875 -7.394531 16.90625 -7.394531 C 12.367188 -7.394531 9.507812 -9.570312 9.507812 -12.429688 C 9.507812 -12.988281 9.570312 -13.550781 9.820312 -14.171875 L 10.316406 -15.351562 C 12.121094 -14.234375 14.359375 -13.488281 16.84375 -13.488281 C 22.5 -13.488281 27.472656 -17.03125 29.148438 -22.625 C 29.460938 -23.804688 29.648438 -24.984375 29.648438 -26.042969 C 29.648438 -31.945312 24.984375 -36.484375 17.960938 -36.484375 C 12.429688 -36.484375 7.023438 -33.253906 4.847656 -27.035156 L 1.179688 -16.410156 C 0.683594 -14.917969 0.371094 -13.425781 0.371094 -11.996094 C 0.371094 -4.597656 7.335938 0 16.410156 0 C 25.046875 0 34.867188 -4.226562 38.96875 -16.097656 C 39.15625 -16.59375 39.21875 -17.03125 39.21875 -17.402344 C 39.21875 -19.328125 37.480469 -20.386719 35.613281 -20.386719 C 33.875 -20.386719 32.007812 -19.453125 31.449219 -17.527344 Z M 17.777344 -29.148438 C 19.515625 -29.148438 20.636719 -27.71875 20.636719 -25.917969 C 20.636719 -25.421875 20.574219 -24.921875 20.386719 -24.425781 C 19.765625 -22.375 17.898438 -21.628906 16.035156 -21.628906 C 14.855469 -21.628906 13.675781 -21.878906 12.804688 -22.375 L 14.109375 -26.105469 C 14.792969 -28.03125 16.347656 -29.148438 17.777344 -29.148438 Z M 17.777344 -29.148438 "/></g></g></g></g><g fill="#a6a6a6" fill-opacity="0.502"><g transform="translate(6.421738, 124.06862)"><g><path d="M 58.796875 -18.398438 C 56.125 -11.125 52.769531 -7.894531 49.847656 -7.894531 C 48.605469 -7.894531 47.796875 -8.703125 47.796875 -9.945312 C 47.796875 -10.503906 47.984375 -11.1875 48.230469 -11.933594 L 58.238281 -39.28125 C 58.734375 -40.585938 59.046875 -42.015625 59.046875 -43.757812 C 59.046875 -49.597656 54.757812 -53.949219 48.417969 -53.949219 C 44.6875 -53.949219 40.214844 -52.457031 37.292969 -49.414062 C 35.367188 -52.332031 33.5 -53.949219 29.273438 -53.949219 C 25.296875 -53.949219 22.6875 -51.464844 22.4375 -51.152344 C 21.941406 -52.707031 20.199219 -53.949219 17.839844 -53.949219 C 16.035156 -53.949219 13.550781 -53.203125 12.679688 -50.78125 L -3.292969 -6.027344 C -3.542969 -5.40625 -3.542969 -4.847656 -3.542969 -4.289062 C -3.542969 -1.554688 -1.367188 0 1.054688 0 C 3.167969 0 5.46875 -1.242188 6.464844 -3.976562 L 18.460938 -37.417969 C 19.953125 -41.582031 22.25 -43.757812 25.046875 -43.757812 C 28.28125 -43.757812 29.148438 -41.269531 27.410156 -36.421875 L 16.53125 -6.527344 C 16.222656 -5.65625 16.035156 -4.847656 16.035156 -4.164062 C 16.035156 -1.492188 18.210938 0 20.574219 0 C 22.75 0 25.046875 -1.242188 26.042969 -4.039062 L 37.664062 -36.609375 C 39.15625 -40.835938 41.644531 -43.695312 44.6875 -43.695312 C 47.113281 -43.695312 48.730469 -41.582031 47.609375 -38.535156 L 38.910156 -14.480469 C 38.347656 -12.867188 38.039062 -11.125 38.039062 -9.695312 C 38.039062 -3.542969 42.949219 0 48.976562 0 C 55.8125 0 62.339844 -4.476562 66.195312 -16.59375 C 66.316406 -17.09375 66.441406 -17.527344 66.441406 -17.960938 C 66.441406 -20.136719 64.578125 -21.382812 62.714844 -21.382812 C 61.097656 -21.382812 59.542969 -20.449219 58.796875 -18.398438 Z M 58.796875 -18.398438 "/></g></g></g><g fill="#a6a6a6" fill-opacity="0.502"><g transform="translate(63.04177, 124.06862)"><g><path d="M 38.96875 -21.007812 C 37.230469 -21.007812 35.304688 -19.953125 34.558594 -17.589844 C 32.132812 -9.945312 28.21875 -7.394531 25.421875 -7.394531 C 24.363281 -7.394531 23.742188 -7.957031 23.742188 -8.949219 C 23.742188 -9.449219 23.867188 -10.070312 24.054688 -10.753906 L 31.015625 -30.890625 C 31.261719 -31.636719 31.386719 -32.320312 31.386719 -32.941406 C 31.386719 -35.675781 29.148438 -37.105469 26.851562 -37.105469 C 25.109375 -37.105469 23.308594 -36.296875 22.3125 -34.742188 C 21.007812 -35.550781 18.585938 -36.484375 15.414062 -36.484375 C 11.3125 -36.484375 6.835938 -34.246094 5.160156 -29.460938 L -0.683594 -12.742188 C -1.054688 -11.621094 -1.304688 -10.503906 -1.304688 -9.386719 C -1.304688 -4.226562 2.859375 0 8.328125 0 C 11.25 0 14.234375 -1.304688 16.53125 -3.355469 C 18.523438 -0.496094 22.933594 0 24.800781 0 C 29.957031 0 36.855469 -2.609375 40.835938 -12.679688 C 41.707031 -15.101562 42.390625 -16.65625 42.390625 -17.777344 C 42.390625 -19.890625 40.773438 -21.007812 38.96875 -21.007812 Z M 18.460938 -21.628906 L 15.476562 -12.367188 C 14.171875 -8.328125 11.808594 -7.394531 10.503906 -7.394531 C 9.136719 -7.394531 8.453125 -8.265625 8.453125 -9.695312 C 8.453125 -10.503906 8.640625 -11.25 8.824219 -11.808594 L 12.804688 -24.300781 C 13.984375 -28.09375 15.726562 -28.589844 16.71875 -28.589844 C 17.898438 -28.589844 19.207031 -27.410156 19.207031 -25.296875 C 19.207031 -24.363281 18.957031 -23.183594 18.460938 -21.628906 Z M 18.460938 -21.628906 "/></g></g></g><g fill="#a6a6a6" fill-opacity="0.502"><g transform="translate(95.671317, 124.06862)"><g><path d="M 34.683594 -17.898438 C 31.945312 -10.441406 28.527344 -7.394531 25.605469 -7.394531 C 24.488281 -7.394531 23.867188 -7.957031 23.867188 -9.011719 C 23.867188 -9.449219 23.992188 -9.945312 24.179688 -10.566406 L 29.027344 -24.363281 C 29.460938 -25.605469 29.710938 -26.726562 29.710938 -27.78125 C 29.710938 -32.753906 25.484375 -36.484375 20.511719 -36.484375 C 18.085938 -36.484375 16.160156 -35.925781 14.542969 -34.742188 C 14.171875 -35.863281 12.617188 -36.484375 10.9375 -36.484375 C 9.199219 -36.484375 7.519531 -35.675781 6.898438 -33.9375 L -3.480469 -4.910156 C -3.667969 -4.351562 -3.730469 -3.855469 -3.730469 -3.355469 C -3.730469 -1.054688 -1.925781 0.125 0.0625 0.125 C 2.238281 0.125 4.722656 -1.242188 5.65625 -4.039062 C 7.832031 -10.070312 10.816406 -18.585938 12.929688 -24.550781 C 14.605469 -27.660156 16.78125 -29.148438 18.523438 -29.148438 C 19.640625 -29.148438 20.449219 -28.40625 20.449219 -27.222656 C 20.449219 -26.789062 20.324219 -26.230469 20.136719 -25.667969 L 15.601562 -12.867188 C 15.101562 -11.4375 14.792969 -10.070312 14.792969 -8.765625 C 14.792969 -3.046875 19.515625 0 24.800781 0 C 31.140625 0 37.914062 -4.289062 42.203125 -16.410156 C 42.390625 -16.90625 42.511719 -17.402344 42.511719 -17.839844 C 42.511719 -19.828125 40.710938 -20.882812 38.847656 -20.882812 C 37.167969 -20.882812 35.304688 -19.953125 34.683594 -17.898438 Z M 34.683594 -17.898438 "/></g></g></g><g fill="#a6a6a6" fill-opacity="0.502"><g transform="translate(128.300863, 124.06862)"><g><path d="M 38.96875 -21.007812 C 37.230469 -21.007812 35.304688 -19.953125 34.558594 -17.589844 C 32.132812 -9.945312 28.21875 -7.394531 25.421875 -7.394531 C 24.363281 -7.394531 23.742188 -7.957031 23.742188 -8.949219 C 23.742188 -9.449219 23.867188 -10.070312 24.054688 -10.753906 L 31.015625 -30.890625 C 31.261719 -31.636719 31.386719 -32.320312 31.386719 -32.941406 C 31.386719 -35.675781 29.148438 -37.105469 26.851562 -37.105469 C 25.109375 -37.105469 23.308594 -36.296875 22.3125 -34.742188 C 21.007812 -35.550781 18.585938 -36.484375 15.414062 -36.484375 C 11.3125 -36.484375 6.835938 -34.246094 5.160156 -29.460938 L -0.683594 -12.742188 C -1.054688 -11.621094 -1.304688 -10.503906 -1.304688 -9.386719 C -1.304688 -4.226562 2.859375 0 8.328125 0 C 11.25 0 14.234375 -1.304688 16.53125 -3.355469 C 18.523438 -0.496094 22.933594 0 24.800781 0 C 29.957031 0 36.855469 -2.609375 40.835938 -12.679688 C 41.707031 -15.101562 42.390625 -16.65625 42.390625 -17.777344 C 42.390625 -19.890625 40.773438 -21.007812 38.96875 -21.007812 Z M 18.460938 -21.628906 L 15.476562 -12.367188 C 14.171875 -8.328125 11.808594 -7.394531 10.503906 -7.394531 C 9.136719 -7.394531 8.453125 -8.265625 8.453125 -9.695312 C 8.453125 -10.503906 8.640625 -11.25 8.824219 -11.808594 L 12.804688 -24.300781 C 13.984375 -28.09375 15.726562 -28.589844 16.71875 -28.589844 C 17.898438 -28.589844 19.207031 -27.410156 19.207031 -25.296875 C 19.207031 -24.363281 18.957031 -23.183594 18.460938 -21.628906 Z M 18.460938 -21.628906 "/></g></g></g><g fill="#a6a6a6" fill-opacity="0.502"><g transform="translate(160.930409, 124.06862)"><g><path d="M 23.804688 -5.40625 L 32.382812 -29.460938 C 32.816406 -30.765625 33.003906 -31.824219 33.003906 -32.628906 C 33.003906 -35.425781 31.078125 -35.988281 30.269531 -36.296875 C 29.894531 -36.421875 29.460938 -36.484375 29.027344 -36.484375 C 27.160156 -36.484375 25.234375 -35.550781 24.488281 -33.375 C 22.375 -35.613281 20.011719 -36.484375 16.71875 -36.484375 C 12.121094 -36.484375 7.273438 -33.875 5.222656 -28.09375 L -0.0625 -13.050781 C -0.496094 -11.746094 -0.746094 -10.378906 -0.746094 -9.136719 C -0.746094 -4.226562 2.671875 -0.933594 6.898438 0 C 1.117188 1.117188 -6.277344 3.355469 -8.140625 9.507812 C -8.453125 10.566406 -8.578125 11.5 -8.578125 12.429688 C -8.578125 18.460938 -2.984375 22.4375 3.109375 22.4375 C 9.261719 22.4375 15.042969 19.144531 17.589844 11.933594 L 20.449219 4.039062 C 29.335938 1.242188 38.472656 -3.605469 42.761719 -16.65625 C 42.949219 -17.15625 43.011719 -17.652344 43.011719 -18.085938 C 43.011719 -20.199219 41.394531 -21.441406 39.53125 -21.441406 C 37.851562 -21.441406 36.050781 -20.386719 35.179688 -17.960938 C 32.878906 -11.621094 28.714844 -7.894531 23.804688 -5.40625 Z M 21.132812 -24.613281 L 16.410156 -11.5 C 15.164062 -9.136719 13.050781 -7.394531 10.9375 -7.394531 C 9.449219 -7.394531 8.328125 -8.140625 8.328125 -9.507812 C 8.328125 -9.820312 8.453125 -10.316406 8.578125 -10.753906 L 14.171875 -26.539062 C 14.792969 -28.28125 16.222656 -29.148438 17.589844 -29.148438 C 19.515625 -29.148438 21.195312 -27.71875 21.195312 -25.484375 C 21.195312 -25.234375 21.195312 -24.921875 21.132812 -24.613281 Z M 9.074219 6.898438 L 7.582031 11.125 C 6.710938 13.425781 4.785156 14.605469 2.921875 14.605469 C 1.492188 14.605469 0.808594 13.734375 0.808594 12.617188 C 0.808594 12.246094 0.933594 11.746094 1.117188 11.3125 C 1.988281 9.136719 5.035156 7.957031 9.074219 6.898438 Z M 9.074219 6.898438 "/></g></g></g><g clip-path="url(#70874807a6)"><g fill="#a6a6a6" fill-opacity="0.502"><g transform="translate(194.119318, 124.06862)"><g><path d="M 31.449219 -17.527344 C 28.714844 -10.316406 22.1875 -7.394531 16.90625 -7.394531 C 12.367188 -7.394531 9.507812 -9.570312 9.507812 -12.429688 C 9.507812 -12.988281 9.570312 -13.550781 9.820312 -14.171875 L 10.316406 -15.351562 C 12.121094 -14.234375 14.359375 -13.488281 16.84375 -13.488281 C 22.5 -13.488281 27.472656 -17.03125 29.148438 -22.625 C 29.460938 -23.804688 29.648438 -24.984375 29.648438 -26.042969 C 29.648438 -31.945312 24.984375 -36.484375 17.960938 -36.484375 C 12.429688 -36.484375 7.023438 -33.253906 4.847656 -27.035156 L 1.179688 -16.410156 C 0.683594 -14.917969 0.371094 -13.425781 0.371094 -11.996094 C 0.371094 -4.597656 7.335938 0 16.410156 0 C 25.046875 0 34.867188 -4.226562 38.96875 -16.097656 C 39.15625 -16.59375 39.21875 -17.03125 39.21875 -17.402344 C 39.21875 -19.328125 37.480469 -20.386719 35.613281 -20.386719 C 33.875 -20.386719 32.007812 -19.453125 31.449219 -17.527344 Z M 17.777344 -29.148438 C 19.515625 -29.148438 20.636719 -27.71875 20.636719 -25.917969 C 20.636719 -25.421875 20.574219 -24.921875 20.386719 -24.425781 C 19.765625 -22.375 17.898438 -21.628906 16.035156 -21.628906 C 14.855469 -21.628906 13.675781 -21.878906 12.804688 -22.375 L 14.109375 -26.105469 C 14.792969 -28.03125 16.347656 -29.148438 17.777344 -29.148438 Z M 17.777344 -29.148438 "/></g></g></g></g><g fill="#000000" fill-opacity="1"><g transform="translate(3.883601, 122.719069)"><g><path d="M 58.796875 -18.398438 C 56.125 -11.125 52.769531 -7.894531 49.847656 -7.894531 C 48.605469 -7.894531 47.796875 -8.703125 47.796875 -9.945312 C 47.796875 -10.503906 47.984375 -11.1875 48.230469 -11.933594 L 58.238281 -39.28125 C 58.734375 -40.585938 59.046875 -42.015625 59.046875 -43.757812 C 59.046875 -49.597656 54.757812 -53.949219 48.417969 -53.949219 C 44.6875 -53.949219 40.214844 -52.457031 37.292969 -49.414062 C 35.367188 -52.332031 33.5 -53.949219 29.273438 -53.949219 C 25.296875 -53.949219 22.6875 -51.464844 22.4375 -51.152344 C 21.941406 -52.707031 20.199219 -53.949219 17.839844 -53.949219 C 16.035156 -53.949219 13.550781 -53.203125 12.679688 -50.78125 L -3.292969 -6.027344 C -3.542969 -5.40625 -3.542969 -4.847656 -3.542969 -4.289062 C -3.542969 -1.554688 -1.367188 0 1.054688 0 C 3.167969 0 5.46875 -1.242188 6.464844 -3.976562 L 18.460938 -37.417969 C 19.953125 -41.582031 22.25 -43.757812 25.046875 -43.757812 C 28.28125 -43.757812 29.148438 -41.269531 27.410156 -36.421875 L 16.53125 -6.527344 C 16.222656 -5.65625 16.035156 -4.847656 16.035156 -4.164062 C 16.035156 -1.492188 18.210938 0 20.574219 0 C 22.75 0 25.046875 -1.242188 26.042969 -4.039062 L 37.664062 -36.609375 C 39.15625 -40.835938 41.644531 -43.695312 44.6875 -43.695312 C 47.113281 -43.695312 48.730469 -41.582031 47.609375 -38.535156 L 38.910156 -14.480469 C 38.347656 -12.867188 38.039062 -11.125 38.039062 -9.695312 C 38.039062 -3.542969 42.949219 0 48.976562 0 C 55.8125 0 62.339844 -4.476562 66.195312 -16.59375 C 66.316406 -17.09375 66.441406 -17.527344 66.441406 -17.960938 C 66.441406 -20.136719 64.578125 -21.382812 62.714844 -21.382812 C 61.097656 -21.382812 59.542969 -20.449219 58.796875 -18.398438 Z M 58.796875 -18.398438 "/></g></g></g><g fill="#000000" fill-opacity="1"><g transform="translate(60.503633, 122.719069)"><g><path d="M 38.96875 -21.007812 C 37.230469 -21.007812 35.304688 -19.953125 34.558594 -17.589844 C 32.132812 -9.945312 28.21875 -7.394531 25.421875 -7.394531 C 24.363281 -7.394531 23.742188 -7.957031 23.742188 -8.949219 C 23.742188 -9.449219 23.867188 -10.070312 24.054688 -10.753906 L 31.015625 -30.890625 C 31.261719 -31.636719 31.386719 -32.320312 31.386719 -32.941406 C 31.386719 -35.675781 29.148438 -37.105469 26.851562 -37.105469 C 25.109375 -37.105469 23.308594 -36.296875 22.3125 -34.742188 C 21.007812 -35.550781 18.585938 -36.484375 15.414062 -36.484375 C 11.3125 -36.484375 6.835938 -34.246094 5.160156 -29.460938 L -0.683594 -12.742188 C -1.054688 -11.621094 -1.304688 -10.503906 -1.304688 -9.386719 C -1.304688 -4.226562 2.859375 0 8.328125 0 C 11.25 0 14.234375 -1.304688 16.53125 -3.355469 C 18.523438 -0.496094 22.933594 0 24.800781 0 C 29.957031 0 36.855469 -2.609375 40.835938 -12.679688 C 41.707031 -15.101562 42.390625 -16.65625 42.390625 -17.777344 C 42.390625 -19.890625 40.773438 -21.007812 38.96875 -21.007812 Z M 18.460938 -21.628906 L 15.476562 -12.367188 C 14.171875 -8.328125 11.808594 -7.394531 10.503906 -7.394531 C 9.136719 -7.394531 8.453125 -8.265625 8.453125 -9.695312 C 8.453125 -10.503906 8.640625 -11.25 8.824219 -11.808594 L 12.804688 -24.300781 C 13.984375 -28.09375 15.726562 -28.589844 16.71875 -28.589844 C 17.898438 -28.589844 19.207031 -27.410156 19.207031 -25.296875 C 19.207031 -24.363281 18.957031 -23.183594 18.460938 -21.628906 Z M 18.460938 -21.628906 "/></g></g></g><g fill="#000000" fill-opacity="1"><g transform="translate(93.13318, 122.719069)"><g><path d="M 34.683594 -17.898438 C 31.945312 -10.441406 28.527344 -7.394531 25.605469 -7.394531 C 24.488281 -7.394531 23.867188 -7.957031 23.867188 -9.011719 C 23.867188 -9.449219 23.992188 -9.945312 24.179688 -10.566406 L 29.027344 -24.363281 C 29.460938 -25.605469 29.710938 -26.726562 29.710938 -27.78125 C 29.710938 -32.753906 25.484375 -36.484375 20.511719 -36.484375 C 18.085938 -36.484375 16.160156 -35.925781 14.542969 -34.742188 C 14.171875 -35.863281 12.617188 -36.484375 10.9375 -36.484375 C 9.199219 -36.484375 7.519531 -35.675781 6.898438 -33.9375 L -3.480469 -4.910156 C -3.667969 -4.351562 -3.730469 -3.855469 -3.730469 -3.355469 C -3.730469 -1.054688 -1.925781 0.125 0.0625 0.125 C 2.238281 0.125 4.722656 -1.242188 5.65625 -4.039062 C 7.832031 -10.070312 10.816406 -18.585938 12.929688 -24.550781 C 14.605469 -27.660156 16.78125 -29.148438 18.523438 -29.148438 C 19.640625 -29.148438 20.449219 -28.40625 20.449219 -27.222656 C 20.449219 -26.789062 20.324219 -26.230469 20.136719 -25.667969 L 15.601562 -12.867188 C 15.101562 -11.4375 14.792969 -10.070312 14.792969 -8.765625 C 14.792969 -3.046875 19.515625 0 24.800781 0 C 31.140625 0 37.914062 -4.289062 42.203125 -16.410156 C 42.390625 -16.90625 42.511719 -17.402344 42.511719 -17.839844 C 42.511719 -19.828125 40.710938 -20.882812 38.847656 -20.882812 C 37.167969 -20.882812 35.304688 -19.953125 34.683594 -17.898438 Z M 34.683594 -17.898438 "/></g></g></g><g fill="#000000" fill-opacity="1"><g transform="translate(125.762726, 122.719069)"><g><path d="M 38.96875 -21.007812 C 37.230469 -21.007812 35.304688 -19.953125 34.558594 -17.589844 C 32.132812 -9.945312 28.21875 -7.394531 25.421875 -7.394531 C 24.363281 -7.394531 23.742188 -7.957031 23.742188 -8.949219 C 23.742188 -9.449219 23.867188 -10.070312 24.054688 -10.753906 L 31.015625 -30.890625 C 31.261719 -31.636719 31.386719 -32.320312 31.386719 -32.941406 C 31.386719 -35.675781 29.148438 -37.105469 26.851562 -37.105469 C 25.109375 -37.105469 23.308594 -36.296875 22.3125 -34.742188 C 21.007812 -35.550781 18.585938 -36.484375 15.414062 -36.484375 C 11.3125 -36.484375 6.835938 -34.246094 5.160156 -29.460938 L -0.683594 -12.742188 C -1.054688 -11.621094 -1.304688 -10.503906 -1.304688 -9.386719 C -1.304688 -4.226562 2.859375 0 8.328125 0 C 11.25 0 14.234375 -1.304688 16.53125 -3.355469 C 18.523438 -0.496094 22.933594 0 24.800781 0 C 29.957031 0 36.855469 -2.609375 40.835938 -12.679688 C 41.707031 -15.101562 42.390625 -16.65625 42.390625 -17.777344 C 42.390625 -19.890625 40.773438 -21.007812 38.96875 -21.007812 Z M 18.460938 -21.628906 L 15.476562 -12.367188 C 14.171875 -8.328125 11.808594 -7.394531 10.503906 -7.394531 C 9.136719 -7.394531 8.453125 -8.265625 8.453125 -9.695312 C 8.453125 -10.503906 8.640625 -11.25 8.824219 -11.808594 L 12.804688 -24.300781 C 13.984375 -28.09375 15.726562 -28.589844 16.71875 -28.589844 C 17.898438 -28.589844 19.207031 -27.410156 19.207031 -25.296875 C 19.207031 -24.363281 18.957031 -23.183594 18.460938 -21.628906 Z M 18.460938 -21.628906 "/></g></g></g><g fill="#000000" fill-opacity="1"><g transform="translate(158.392272, 122.719069)"><g><path d="M 23.804688 -5.40625 L 32.382812 -29.460938 C 32.816406 -30.765625 33.003906 -31.824219 33.003906 -32.628906 C 33.003906 -35.425781 31.078125 -35.988281 30.269531 -36.296875 C 29.894531 -36.421875 29.460938 -36.484375 29.027344 -36.484375 C 27.160156 -36.484375 25.234375 -35.550781 24.488281 -33.375 C 22.375 -35.613281 20.011719 -36.484375 16.71875 -36.484375 C 12.121094 -36.484375 7.273438 -33.875 5.222656 -28.09375 L -0.0625 -13.050781 C -0.496094 -11.746094 -0.746094 -10.378906 -0.746094 -9.136719 C -0.746094 -4.226562 2.671875 -0.933594 6.898438 0 C 1.117188 1.117188 -6.277344 3.355469 -8.140625 9.507812 C -8.453125 10.566406 -8.578125 11.5 -8.578125 12.429688 C -8.578125 18.460938 -2.984375 22.4375 3.109375 22.4375 C 9.261719 22.4375 15.042969 19.144531 17.589844 11.933594 L 20.449219 4.039062 C 29.335938 1.242188 38.472656 -3.605469 42.761719 -16.65625 C 42.949219 -17.15625 43.011719 -17.652344 43.011719 -18.085938 C 43.011719 -20.199219 41.394531 -21.441406 39.53125 -21.441406 C 37.851562 -21.441406 36.050781 -20.386719 35.179688 -17.960938 C 32.878906 -11.621094 28.714844 -7.894531 23.804688 -5.40625 Z M 21.132812 -24.613281 L 16.410156 -11.5 C 15.164062 -9.136719 13.050781 -7.394531 10.9375 -7.394531 C 9.449219 -7.394531 8.328125 -8.140625 8.328125 -9.507812 C 8.328125 -9.820312 8.453125 -10.316406 8.578125 -10.753906 L 14.171875 -26.539062 C 14.792969 -28.28125 16.222656 -29.148438 17.589844 -29.148438 C 19.515625 -29.148438 21.195312 -27.71875 21.195312 -25.484375 C 21.195312 -25.234375 21.195312 -24.921875 21.132812 -24.613281 Z M 9.074219 6.898438 L 7.582031 11.125 C 6.710938 13.425781 4.785156 14.605469 2.921875 14.605469 C 1.492188 14.605469 0.808594 13.734375 0.808594 12.617188 C 0.808594 12.246094 0.933594 11.746094 1.117188 11.3125 C 1.988281 9.136719 5.035156 7.957031 9.074219 6.898438 Z M 9.074219 6.898438 "/></g></g></g><g fill="#000000" fill-opacity="1"><g transform="translate(191.581181, 122.719069)"><g><path d="M 31.449219 -17.527344 C 28.714844 -10.316406 22.1875 -7.394531 16.90625 -7.394531 C 12.367188 -7.394531 9.507812 -9.570312 9.507812 -12.429688 C 9.507812 -12.988281 9.570312 -13.550781 9.820312 -14.171875 L 10.316406 -15.351562 C 12.121094 -14.234375 14.359375 -13.488281 16.84375 -13.488281 C 22.5 -13.488281 27.472656 -17.03125 29.148438 -22.625 C 29.460938 -23.804688 29.648438 -24.984375 29.648438 -26.042969 C 29.648438 -31.945312 24.984375 -36.484375 17.960938 -36.484375 C 12.429688 -36.484375 7.023438 -33.253906 4.847656 -27.035156 L 1.179688 -16.410156 C 0.683594 -14.917969 0.371094 -13.425781 0.371094 -11.996094 C 0.371094 -4.597656 7.335938 0 16.410156 0 C 25.046875 0 34.867188 -4.226562 38.96875 -16.097656 C 39.15625 -16.59375 39.21875 -17.03125 39.21875 -17.402344 C 39.21875 -19.328125 37.480469 -20.386719 35.613281 -20.386719 C 33.875 -20.386719 32.007812 -19.453125 31.449219 -17.527344 Z M 17.777344 -29.148438 C 19.515625 -29.148438 20.636719 -27.71875 20.636719 -25.917969 C 20.636719 -25.421875 20.574219 -24.921875 20.386719 -24.425781 C 19.765625 -22.375 17.898438 -21.628906 16.035156 -21.628906 C 14.855469 -21.628906 13.675781 -21.878906 12.804688 -22.375 L 14.109375 -26.105469 C 14.792969 -28.03125 16.347656 -29.148438 17.777344 -29.148438 Z M 17.777344 -29.148438 "/></g></g></g></svg>