<svg xmlns="http://www.w3.org/2000/svg" xmlns:xlink="http://www.w3.org/1999/xlink" width="641" zoomAndPan="magnify" viewBox="0 0 480.75 250.499992" height="334" preserveAspectRatio="xMidYMid meet" version="1.0"><defs><g/><clipPath id="5b1c0a1b02"><path d="M 131.34375 6.332031 L 419.402344 6.332031 L 419.402344 249.800781 L 131.34375 249.800781 Z M 131.34375 6.332031 " clip-rule="nonzero"/></clipPath><clipPath id="44335f96e1"><path d="M 131.34375 128.066406 L 419.402344 6.332031 L 419.402344 249.800781 Z M 131.34375 128.066406 " clip-rule="nonzero"/></clipPath><clipPath id="e8aa9858c7"><path d="M 0.75 42.011719 L 149 42.011719 L 149 193.210938 L 0.75 193.210938 Z M 0.75 42.011719 " clip-rule="nonzero"/></clipPath><clipPath id="67c185bebf"><path d="M 144 102 L 177.398438 102 L 177.398438 153 L 144 153 Z M 144 102 " clip-rule="nonzero"/></clipPath></defs><g clip-path="url(#5b1c0a1b02)"><g clip-path="url(#44335f96e1)"><path fill="#ffde59" d="M 131.34375 249.800781 L 131.34375 6.332031 L 419.402344 6.332031 L 419.402344 249.800781 Z M 131.34375 249.800781 " fill-opacity="1" fill-rule="nonzero"/></g></g><g clip-path="url(#e8aa9858c7)"><path fill="#000000" d="M 112.167969 42.105469 C 94.128906 42.105469 79.160156 55.230469 76.289062 72.445312 L 71.824219 73.292969 C 66.582031 64.4375 56.929688 58.492188 45.878906 58.492188 C 29.234375 58.492188 15.75 71.976562 15.75 88.613281 C 15.75 102.761719 25.5 114.621094 38.65625 117.859375 L 38.65625 121.222656 L 32.550781 121.222656 L 32.523438 120.949219 L 25.300781 118.269531 L 20.238281 118.269531 L 28.226562 134.902344 L 31.183594 134.109375 L 32.824219 131.429688 L 38.65625 131.429688 L 38.65625 169.042969 L 48.316406 169.042969 L 47.195312 177.414062 L 24.203125 181.792969 L 19.25 179.222656 L 0.75 182.75 L 2.035156 193.117188 L 20.621094 189.589844 L 24.917969 185.265625 L 49.902344 179.878906 L 51.683594 169.042969 L 143.394531 169.042969 L 143.394531 106.503906 L 135.347656 106.503906 C 143.421875 99.835938 148.570312 89.75 148.570312 78.464844 C 148.570312 58.375 132.265625 42.105469 112.167969 42.105469 Z M 80.558594 96.464844 C 82.742188 100.300781 85.601562 103.710938 88.984375 106.507812 L 70.128906 106.507812 C 72.105469 103.835938 73.636719 100.828125 74.644531 97.585938 Z M 132.886719 156.40625 C 134.699219 156.40625 136.167969 157.875 136.167969 159.6875 C 136.167969 161.5 134.699219 162.972656 132.886719 162.972656 C 131.070312 162.972656 129.601562 161.5 129.601562 159.6875 C 129.601562 157.875 131.070312 156.40625 132.886719 156.40625 Z M 132.886719 156.40625 " fill-opacity="1" fill-rule="nonzero"/></g><path fill="#ffffff" d="M 111.640625 59.238281 C 101.484375 59.238281 93.25 67.46875 93.25 77.621094 C 93.25 87.777344 101.484375 96.007812 111.640625 96.007812 C 121.800781 96.007812 130.035156 87.777344 130.035156 77.621094 C 130.035156 67.46875 121.800781 59.238281 111.640625 59.238281 Z M 109.886719 64.664062 C 111.53125 64.664062 112.871094 65.988281 112.871094 67.632812 C 112.871094 69.277344 111.53125 70.617188 109.886719 70.617188 C 108.238281 70.617188 106.902344 69.277344 106.902344 67.632812 C 106.902344 65.988281 108.238281 64.664062 109.886719 64.664062 Z M 119.097656 70.25 C 120.742188 70.25 122.082031 71.589844 122.082031 73.234375 C 122.082031 74.878906 120.742188 76.21875 119.097656 76.21875 C 117.453125 76.21875 116.113281 74.878906 116.113281 73.234375 C 116.113281 71.589844 117.453125 70.25 119.097656 70.25 Z M 102.84375 72.597656 C 104.492188 72.597656 105.816406 73.933594 105.816406 75.582031 C 105.816406 77.226562 104.492188 78.5625 102.84375 78.5625 C 101.199219 78.5625 99.859375 77.226562 99.859375 75.582031 C 99.859375 73.933594 101.199219 72.597656 102.84375 72.597656 Z M 118.011719 80.734375 C 119.660156 80.734375 120.996094 82.058594 120.996094 83.703125 C 120.996094 85.347656 119.660156 86.6875 118.011719 86.6875 C 116.367188 86.6875 115.027344 85.347656 115.027344 83.703125 C 115.027344 82.058594 116.367188 80.734375 118.011719 80.734375 Z M 106.996094 82.539062 C 108.644531 82.539062 109.980469 83.859375 109.980469 85.507812 C 109.980469 87.152344 108.644531 88.492188 106.996094 88.492188 C 105.351562 88.492188 104.011719 87.152344 104.011719 85.507812 C 104.011719 83.859375 105.351562 82.539062 106.996094 82.539062 Z M 106.996094 82.539062 " fill-opacity="1" fill-rule="nonzero"/><path fill="#ffffff" d="M 45.957031 72.371094 C 37.734375 72.371094 31.070312 79.035156 31.070312 87.253906 C 31.070312 95.472656 37.734375 102.136719 45.957031 102.136719 C 54.179688 102.136719 60.847656 95.472656 60.847656 87.253906 C 60.847656 79.035156 54.179688 72.371094 45.957031 72.371094 Z M 44.535156 76.761719 C 45.867188 76.761719 46.953125 77.832031 46.953125 79.164062 C 46.953125 80.496094 45.867188 81.582031 44.535156 81.582031 C 43.203125 81.582031 42.121094 80.496094 42.121094 79.164062 C 42.121094 77.832031 43.203125 76.761719 44.535156 76.761719 Z M 51.992188 81.285156 C 53.324219 81.285156 54.410156 82.367188 54.410156 83.699219 C 54.410156 85.03125 53.324219 86.117188 51.992188 86.117188 C 50.660156 86.117188 49.578125 85.03125 49.578125 83.699219 C 49.578125 82.367188 50.660156 81.285156 51.992188 81.285156 Z M 38.835938 83.183594 C 40.167969 83.183594 41.238281 84.265625 41.238281 85.597656 C 41.238281 86.929688 40.167969 88.015625 38.835938 88.015625 C 37.503906 88.015625 36.417969 86.929688 36.417969 85.597656 C 36.417969 84.265625 37.503906 83.183594 38.835938 83.183594 Z M 51.113281 89.773438 C 52.445312 89.773438 53.53125 90.84375 53.53125 92.175781 C 53.53125 93.507812 52.445312 94.589844 51.113281 94.589844 C 49.78125 94.589844 48.695312 93.507812 48.695312 92.175781 C 48.695312 90.84375 49.78125 89.773438 51.113281 89.773438 Z M 42.195312 91.230469 C 43.527344 91.230469 44.613281 92.300781 44.613281 93.632812 C 44.613281 94.964844 43.527344 96.050781 42.195312 96.050781 C 40.863281 96.050781 39.78125 94.964844 39.78125 93.632812 C 39.78125 92.300781 40.863281 91.230469 42.195312 91.230469 Z M 42.195312 91.230469 " fill-opacity="1" fill-rule="nonzero"/><g clip-path="url(#67c185bebf)"><path fill="#000000" d="M 177.40625 102.652344 L 158.929688 113.839844 L 144.480469 113.839844 L 144.480469 141.71875 L 158.929688 141.71875 L 177.40625 152.90625 Z M 177.40625 102.652344 " fill-opacity="1" fill-rule="nonzero"/></g><g fill="#fd6155" fill-opacity="0.302"><g transform="translate(263.299341, 106.689585)"><g><path d="M 35.964844 -20.511719 C 32.75 -11.828125 25.503906 -8.546875 20.03125 -8.546875 C 14.632812 -8.546875 9.296875 -11.761719 9.296875 -16.273438 C 9.296875 -17.296875 9.433594 -18.460938 9.84375 -19.621094 L 18.460938 -43.621094 C 20.101562 -48.132812 22.90625 -48.816406 24.546875 -48.816406 C 26.117188 -48.816406 27.210938 -47.859375 27.210938 -45.808594 C 27.210938 -44.851562 26.9375 -43.621094 26.390625 -42.253906 C 26.1875 -41.773438 26.117188 -41.296875 26.117188 -40.816406 C 26.117188 -38.425781 28.441406 -36.441406 31.109375 -36.441406 C 33.503906 -36.441406 36.167969 -38.082031 37.398438 -42.59375 C 37.878906 -44.375 38.082031 -46.015625 38.082031 -47.449219 C 38.082031 -54.972656 32.136719 -59.347656 24.339844 -59.347656 C 19.347656 -59.347656 11.625 -57.296875 8 -47.039062 L -0.546875 -22.632812 C -1.300781 -20.511719 -1.710938 -18.1875 -1.710938 -16.136719 C -1.710938 -7.179688 6.496094 0 18.390625 0 C 27.894531 0 39.722656 -4.855469 43.964844 -18.253906 C 44.101562 -18.800781 44.167969 -19.28125 44.167969 -19.691406 C 44.167969 -22.085938 42.046875 -23.453125 39.929688 -23.453125 C 38.152344 -23.453125 36.441406 -22.5625 35.964844 -20.511719 Z M 35.964844 -20.511719 "/></g></g></g><g fill="#fd6155" fill-opacity="0.302"><g transform="translate(296.72777, 106.689585)"><g><path d="M 18.390625 -46.425781 C 21.46875 -46.425781 24 -48.953125 24 -52.097656 C 24 -55.175781 21.46875 -57.636719 18.390625 -57.636719 C 15.316406 -57.636719 12.785156 -55.175781 12.785156 -52.097656 C 12.785156 -48.953125 15.316406 -46.425781 18.390625 -46.425781 Z M 9.160156 -11.554688 L 16.683594 -33.023438 C 16.957031 -33.914062 17.296875 -34.871094 17.296875 -35.554688 C 17.296875 -38.5625 15.042969 -40.132812 12.71875 -40.132812 C 10.597656 -40.132812 8.339844 -38.628906 7.246094 -35.417969 C 5.058594 -28.988281 2.1875 -20.851562 0 -14.496094 C -0.410156 -13.128906 -0.957031 -11.28125 -0.957031 -10.117188 C -0.957031 -3.691406 4.375 0 10.664062 0 C 17.367188 0 24.75 -4.101562 29.535156 -18.253906 C 29.671875 -18.664062 29.742188 -19.074219 29.742188 -19.484375 C 29.742188 -21.605469 27.691406 -22.90625 25.640625 -22.90625 C 23.792969 -22.90625 21.949219 -21.949219 21.125 -19.828125 C 17.914062 -10.941406 14.289062 -8.136719 11.554688 -8.136719 C 9.980469 -8.136719 8.957031 -9.160156 8.957031 -10.460938 C 8.957031 -10.804688 9.023438 -11.144531 9.160156 -11.554688 Z M 9.160156 -11.554688 "/></g></g></g><g fill="#fd6155" fill-opacity="0.302"><g transform="translate(315.595363, 106.689585)"><g><path d="M 38.152344 -19.691406 C 35.144531 -11.488281 31.382812 -8.136719 28.167969 -8.136719 C 26.9375 -8.136719 26.253906 -8.75 26.253906 -9.914062 C 26.253906 -10.390625 26.390625 -10.941406 26.597656 -11.625 L 31.929688 -26.800781 C 32.410156 -28.167969 32.683594 -29.398438 32.683594 -30.5625 C 32.683594 -36.03125 28.03125 -40.132812 22.5625 -40.132812 C 19.894531 -40.132812 17.777344 -39.519531 16 -38.21875 C 15.589844 -39.449219 13.878906 -40.132812 12.035156 -40.132812 C 10.117188 -40.132812 8.273438 -39.246094 7.589844 -37.332031 L -3.828125 -5.402344 C -4.035156 -4.785156 -4.101562 -4.238281 -4.101562 -3.691406 C -4.101562 -1.164062 -2.121094 0.136719 0.0703125 0.136719 C 2.460938 0.136719 5.195312 -1.367188 6.222656 -4.445312 C 8.613281 -11.078125 11.898438 -20.441406 14.222656 -27.007812 C 16.066406 -30.425781 18.460938 -32.066406 20.375 -32.066406 C 21.605469 -32.066406 22.496094 -31.246094 22.496094 -29.945312 C 22.496094 -29.46875 22.359375 -28.851562 22.152344 -28.238281 L 17.160156 -14.152344 C 16.613281 -12.582031 16.273438 -11.078125 16.273438 -9.640625 C 16.273438 -3.351562 21.46875 0 27.28125 0 C 34.253906 0 41.707031 -4.71875 46.425781 -18.050781 C 46.628906 -18.597656 46.765625 -19.144531 46.765625 -19.621094 C 46.765625 -21.8125 44.785156 -22.972656 42.730469 -22.972656 C 40.886719 -22.972656 38.835938 -21.949219 38.152344 -19.691406 Z M 38.152344 -19.691406 "/></g></g></g><g fill="#fd6155" fill-opacity="0.302"><g transform="translate(351.484791, 106.689585)"><g><path d="M 34.597656 -19.28125 C 31.585938 -11.351562 24.410156 -8.136719 18.597656 -8.136719 C 13.605469 -8.136719 10.460938 -10.527344 10.460938 -13.675781 C 10.460938 -14.289062 10.527344 -14.90625 10.804688 -15.589844 L 11.351562 -16.886719 C 13.332031 -15.65625 15.792969 -14.835938 18.527344 -14.835938 C 24.75 -14.835938 30.21875 -18.734375 32.066406 -24.886719 C 32.410156 -26.1875 32.613281 -27.484375 32.613281 -28.648438 C 32.613281 -35.144531 27.484375 -40.132812 19.757812 -40.132812 C 13.675781 -40.132812 7.726562 -36.578125 5.332031 -29.742188 L 1.300781 -18.050781 C 0.753906 -16.410156 0.410156 -14.769531 0.410156 -13.195312 C 0.410156 -5.058594 8.066406 0 18.050781 0 C 27.554688 0 38.355469 -4.648438 42.871094 -17.707031 C 43.074219 -18.253906 43.144531 -18.734375 43.144531 -19.144531 C 43.144531 -21.261719 41.226562 -22.425781 39.175781 -22.425781 C 37.261719 -22.425781 35.210938 -21.398438 34.597656 -19.28125 Z M 19.554688 -32.066406 C 21.46875 -32.066406 22.699219 -30.492188 22.699219 -28.511719 C 22.699219 -27.964844 22.632812 -27.417969 22.425781 -26.871094 C 21.742188 -24.613281 19.691406 -23.792969 17.640625 -23.792969 C 16.339844 -23.792969 15.042969 -24.066406 14.085938 -24.613281 L 15.519531 -28.714844 C 16.273438 -30.835938 17.980469 -32.066406 19.554688 -32.066406 Z M 19.554688 -32.066406 "/></g></g></g><g fill="#fd6155" fill-opacity="0.502"><g transform="translate(260.506815, 105.204777)"><g><path d="M 35.964844 -20.511719 C 32.75 -11.828125 25.503906 -8.546875 20.03125 -8.546875 C 14.632812 -8.546875 9.296875 -11.761719 9.296875 -16.273438 C 9.296875 -17.296875 9.433594 -18.460938 9.84375 -19.621094 L 18.460938 -43.621094 C 20.101562 -48.132812 22.90625 -48.816406 24.546875 -48.816406 C 26.117188 -48.816406 27.210938 -47.859375 27.210938 -45.808594 C 27.210938 -44.851562 26.9375 -43.621094 26.390625 -42.253906 C 26.1875 -41.773438 26.117188 -41.296875 26.117188 -40.816406 C 26.117188 -38.425781 28.441406 -36.441406 31.109375 -36.441406 C 33.503906 -36.441406 36.167969 -38.082031 37.398438 -42.59375 C 37.878906 -44.375 38.082031 -46.015625 38.082031 -47.449219 C 38.082031 -54.972656 32.136719 -59.347656 24.339844 -59.347656 C 19.347656 -59.347656 11.625 -57.296875 8 -47.039062 L -0.546875 -22.632812 C -1.300781 -20.511719 -1.710938 -18.1875 -1.710938 -16.136719 C -1.710938 -7.179688 6.496094 0 18.390625 0 C 27.894531 0 39.722656 -4.855469 43.964844 -18.253906 C 44.101562 -18.800781 44.167969 -19.28125 44.167969 -19.691406 C 44.167969 -22.085938 42.046875 -23.453125 39.929688 -23.453125 C 38.152344 -23.453125 36.441406 -22.5625 35.964844 -20.511719 Z M 35.964844 -20.511719 "/></g></g></g><g fill="#fd6155" fill-opacity="0.502"><g transform="translate(293.935244, 105.204777)"><g><path d="M 18.390625 -46.425781 C 21.46875 -46.425781 24 -48.953125 24 -52.097656 C 24 -55.175781 21.46875 -57.636719 18.390625 -57.636719 C 15.316406 -57.636719 12.785156 -55.175781 12.785156 -52.097656 C 12.785156 -48.953125 15.316406 -46.425781 18.390625 -46.425781 Z M 9.160156 -11.554688 L 16.683594 -33.023438 C 16.957031 -33.914062 17.296875 -34.871094 17.296875 -35.554688 C 17.296875 -38.5625 15.042969 -40.132812 12.71875 -40.132812 C 10.597656 -40.132812 8.339844 -38.628906 7.246094 -35.417969 C 5.058594 -28.988281 2.1875 -20.851562 0 -14.496094 C -0.410156 -13.128906 -0.957031 -11.28125 -0.957031 -10.117188 C -0.957031 -3.691406 4.375 0 10.664062 0 C 17.367188 0 24.75 -4.101562 29.535156 -18.253906 C 29.671875 -18.664062 29.742188 -19.074219 29.742188 -19.484375 C 29.742188 -21.605469 27.691406 -22.90625 25.640625 -22.90625 C 23.792969 -22.90625 21.949219 -21.949219 21.125 -19.828125 C 17.914062 -10.941406 14.289062 -8.136719 11.554688 -8.136719 C 9.980469 -8.136719 8.957031 -9.160156 8.957031 -10.460938 C 8.957031 -10.804688 9.023438 -11.144531 9.160156 -11.554688 Z M 9.160156 -11.554688 "/></g></g></g><g fill="#fd6155" fill-opacity="0.502"><g transform="translate(312.802837, 105.204777)"><g><path d="M 38.152344 -19.691406 C 35.144531 -11.488281 31.382812 -8.136719 28.167969 -8.136719 C 26.9375 -8.136719 26.253906 -8.75 26.253906 -9.914062 C 26.253906 -10.390625 26.390625 -10.941406 26.597656 -11.625 L 31.929688 -26.800781 C 32.410156 -28.167969 32.683594 -29.398438 32.683594 -30.5625 C 32.683594 -36.03125 28.03125 -40.132812 22.5625 -40.132812 C 19.894531 -40.132812 17.777344 -39.519531 16 -38.21875 C 15.589844 -39.449219 13.878906 -40.132812 12.035156 -40.132812 C 10.117188 -40.132812 8.273438 -39.246094 7.589844 -37.332031 L -3.828125 -5.402344 C -4.035156 -4.785156 -4.101562 -4.238281 -4.101562 -3.691406 C -4.101562 -1.164062 -2.121094 0.136719 0.0703125 0.136719 C 2.460938 0.136719 5.195312 -1.367188 6.222656 -4.445312 C 8.613281 -11.078125 11.898438 -20.441406 14.222656 -27.007812 C 16.066406 -30.425781 18.460938 -32.066406 20.375 -32.066406 C 21.605469 -32.066406 22.496094 -31.246094 22.496094 -29.945312 C 22.496094 -29.46875 22.359375 -28.851562 22.152344 -28.238281 L 17.160156 -14.152344 C 16.613281 -12.582031 16.273438 -11.078125 16.273438 -9.640625 C 16.273438 -3.351562 21.46875 0 27.28125 0 C 34.253906 0 41.707031 -4.71875 46.425781 -18.050781 C 46.628906 -18.597656 46.765625 -19.144531 46.765625 -19.621094 C 46.765625 -21.8125 44.785156 -22.972656 42.730469 -22.972656 C 40.886719 -22.972656 38.835938 -21.949219 38.152344 -19.691406 Z M 38.152344 -19.691406 "/></g></g></g><g fill="#fd6155" fill-opacity="0.502"><g transform="translate(348.692265, 105.204777)"><g><path d="M 34.597656 -19.28125 C 31.585938 -11.351562 24.410156 -8.136719 18.597656 -8.136719 C 13.605469 -8.136719 10.460938 -10.527344 10.460938 -13.675781 C 10.460938 -14.289062 10.527344 -14.90625 10.804688 -15.589844 L 11.351562 -16.886719 C 13.332031 -15.65625 15.792969 -14.835938 18.527344 -14.835938 C 24.75 -14.835938 30.21875 -18.734375 32.066406 -24.886719 C 32.410156 -26.1875 32.613281 -27.484375 32.613281 -28.648438 C 32.613281 -35.144531 27.484375 -40.132812 19.757812 -40.132812 C 13.675781 -40.132812 7.726562 -36.578125 5.332031 -29.742188 L 1.300781 -18.050781 C 0.753906 -16.410156 0.410156 -14.769531 0.410156 -13.195312 C 0.410156 -5.058594 8.066406 0 18.050781 0 C 27.554688 0 38.355469 -4.648438 42.871094 -17.707031 C 43.074219 -18.253906 43.144531 -18.734375 43.144531 -19.144531 C 43.144531 -21.261719 41.226562 -22.425781 39.175781 -22.425781 C 37.261719 -22.425781 35.210938 -21.398438 34.597656 -19.28125 Z M 19.554688 -32.066406 C 21.46875 -32.066406 22.699219 -30.492188 22.699219 -28.511719 C 22.699219 -27.964844 22.632812 -27.417969 22.425781 -26.871094 C 21.742188 -24.613281 19.691406 -23.792969 17.640625 -23.792969 C 16.339844 -23.792969 15.042969 -24.066406 14.085938 -24.613281 L 15.519531 -28.714844 C 16.273438 -30.835938 17.980469 -32.066406 19.554688 -32.066406 Z M 19.554688 -32.066406 "/></g></g></g><g fill="#ff3131" fill-opacity="1"><g transform="translate(257.714303, 103.719969)"><g><path d="M 35.964844 -20.511719 C 32.75 -11.828125 25.503906 -8.546875 20.03125 -8.546875 C 14.632812 -8.546875 9.296875 -11.761719 9.296875 -16.273438 C 9.296875 -17.296875 9.433594 -18.460938 9.84375 -19.621094 L 18.460938 -43.621094 C 20.101562 -48.132812 22.90625 -48.816406 24.546875 -48.816406 C 26.117188 -48.816406 27.210938 -47.859375 27.210938 -45.808594 C 27.210938 -44.851562 26.9375 -43.621094 26.390625 -42.253906 C 26.1875 -41.773438 26.117188 -41.296875 26.117188 -40.816406 C 26.117188 -38.425781 28.441406 -36.441406 31.109375 -36.441406 C 33.503906 -36.441406 36.167969 -38.082031 37.398438 -42.59375 C 37.878906 -44.375 38.082031 -46.015625 38.082031 -47.449219 C 38.082031 -54.972656 32.136719 -59.347656 24.339844 -59.347656 C 19.347656 -59.347656 11.625 -57.296875 8 -47.039062 L -0.546875 -22.632812 C -1.300781 -20.511719 -1.710938 -18.1875 -1.710938 -16.136719 C -1.710938 -7.179688 6.496094 0 18.390625 0 C 27.894531 0 39.722656 -4.855469 43.964844 -18.253906 C 44.101562 -18.800781 44.167969 -19.28125 44.167969 -19.691406 C 44.167969 -22.085938 42.046875 -23.453125 39.929688 -23.453125 C 38.152344 -23.453125 36.441406 -22.5625 35.964844 -20.511719 Z M 35.964844 -20.511719 "/></g></g></g><g fill="#ff3131" fill-opacity="1"><g transform="translate(291.142732, 103.719969)"><g><path d="M 18.390625 -46.425781 C 21.46875 -46.425781 24 -48.953125 24 -52.097656 C 24 -55.175781 21.46875 -57.636719 18.390625 -57.636719 C 15.316406 -57.636719 12.785156 -55.175781 12.785156 -52.097656 C 12.785156 -48.953125 15.316406 -46.425781 18.390625 -46.425781 Z M 9.160156 -11.554688 L 16.683594 -33.023438 C 16.957031 -33.914062 17.296875 -34.871094 17.296875 -35.554688 C 17.296875 -38.5625 15.042969 -40.132812 12.71875 -40.132812 C 10.597656 -40.132812 8.339844 -38.628906 7.246094 -35.417969 C 5.058594 -28.988281 2.1875 -20.851562 0 -14.496094 C -0.410156 -13.128906 -0.957031 -11.28125 -0.957031 -10.117188 C -0.957031 -3.691406 4.375 0 10.664062 0 C 17.367188 0 24.75 -4.101562 29.535156 -18.253906 C 29.671875 -18.664062 29.742188 -19.074219 29.742188 -19.484375 C 29.742188 -21.605469 27.691406 -22.90625 25.640625 -22.90625 C 23.792969 -22.90625 21.949219 -21.949219 21.125 -19.828125 C 17.914062 -10.941406 14.289062 -8.136719 11.554688 -8.136719 C 9.980469 -8.136719 8.957031 -9.160156 8.957031 -10.460938 C 8.957031 -10.804688 9.023438 -11.144531 9.160156 -11.554688 Z M 9.160156 -11.554688 "/></g></g></g><g fill="#ff3131" fill-opacity="1"><g transform="translate(310.010326, 103.719969)"><g><path d="M 38.152344 -19.691406 C 35.144531 -11.488281 31.382812 -8.136719 28.167969 -8.136719 C 26.9375 -8.136719 26.253906 -8.75 26.253906 -9.914062 C 26.253906 -10.390625 26.390625 -10.941406 26.597656 -11.625 L 31.929688 -26.800781 C 32.410156 -28.167969 32.683594 -29.398438 32.683594 -30.5625 C 32.683594 -36.03125 28.03125 -40.132812 22.5625 -40.132812 C 19.894531 -40.132812 17.777344 -39.519531 16 -38.21875 C 15.589844 -39.449219 13.878906 -40.132812 12.035156 -40.132812 C 10.117188 -40.132812 8.273438 -39.246094 7.589844 -37.332031 L -3.828125 -5.402344 C -4.035156 -4.785156 -4.101562 -4.238281 -4.101562 -3.691406 C -4.101562 -1.164062 -2.121094 0.136719 0.0703125 0.136719 C 2.460938 0.136719 5.195312 -1.367188 6.222656 -4.445312 C 8.613281 -11.078125 11.898438 -20.441406 14.222656 -27.007812 C 16.066406 -30.425781 18.460938 -32.066406 20.375 -32.066406 C 21.605469 -32.066406 22.496094 -31.246094 22.496094 -29.945312 C 22.496094 -29.46875 22.359375 -28.851562 22.152344 -28.238281 L 17.160156 -14.152344 C 16.613281 -12.582031 16.273438 -11.078125 16.273438 -9.640625 C 16.273438 -3.351562 21.46875 0 27.28125 0 C 34.253906 0 41.707031 -4.71875 46.425781 -18.050781 C 46.628906 -18.597656 46.765625 -19.144531 46.765625 -19.621094 C 46.765625 -21.8125 44.785156 -22.972656 42.730469 -22.972656 C 40.886719 -22.972656 38.835938 -21.949219 38.152344 -19.691406 Z M 38.152344 -19.691406 "/></g></g></g><g fill="#ff3131" fill-opacity="1"><g transform="translate(345.899753, 103.719969)"><g><path d="M 34.597656 -19.28125 C 31.585938 -11.351562 24.410156 -8.136719 18.597656 -8.136719 C 13.605469 -8.136719 10.460938 -10.527344 10.460938 -13.675781 C 10.460938 -14.289062 10.527344 -14.90625 10.804688 -15.589844 L 11.351562 -16.886719 C 13.332031 -15.65625 15.792969 -14.835938 18.527344 -14.835938 C 24.75 -14.835938 30.21875 -18.734375 32.066406 -24.886719 C 32.410156 -26.1875 32.613281 -27.484375 32.613281 -28.648438 C 32.613281 -35.144531 27.484375 -40.132812 19.757812 -40.132812 C 13.675781 -40.132812 7.726562 -36.578125 5.332031 -29.742188 L 1.300781 -18.050781 C 0.753906 -16.410156 0.410156 -14.769531 0.410156 -13.195312 C 0.410156 -5.058594 8.066406 0 18.050781 0 C 27.554688 0 38.355469 -4.648438 42.871094 -17.707031 C 43.074219 -18.253906 43.144531 -18.734375 43.144531 -19.144531 C 43.144531 -21.261719 41.226562 -22.425781 39.175781 -22.425781 C 37.261719 -22.425781 35.210938 -21.398438 34.597656 -19.28125 Z M 19.554688 -32.066406 C 21.46875 -32.066406 22.699219 -30.492188 22.699219 -28.511719 C 22.699219 -27.964844 22.632812 -27.417969 22.425781 -26.871094 C 21.742188 -24.613281 19.691406 -23.792969 17.640625 -23.792969 C 16.339844 -23.792969 15.042969 -24.066406 14.085938 -24.613281 L 15.519531 -28.714844 C 16.273438 -30.835938 17.980469 -32.066406 19.554688 -32.066406 Z M 19.554688 -32.066406 "/></g></g></g><g fill="#fd6155" fill-opacity="0.302"><g transform="translate(200.251529, 174.696213)"><g><path d="M 64.679688 -20.238281 C 61.738281 -12.238281 58.046875 -8.683594 54.835938 -8.683594 C 53.464844 -8.683594 52.578125 -9.570312 52.578125 -10.941406 C 52.578125 -11.554688 52.78125 -12.308594 53.054688 -13.128906 L 64.0625 -43.210938 C 64.613281 -44.648438 64.953125 -46.21875 64.953125 -48.132812 C 64.953125 -54.5625 60.234375 -59.347656 53.261719 -59.347656 C 49.160156 -59.347656 44.238281 -57.707031 41.023438 -54.355469 C 38.902344 -57.570312 36.851562 -59.347656 32.203125 -59.347656 C 27.828125 -59.347656 24.957031 -56.613281 24.683594 -56.269531 C 24.136719 -57.980469 22.222656 -59.347656 19.621094 -59.347656 C 17.640625 -59.347656 14.90625 -58.527344 13.949219 -55.859375 L -3.625 -6.632812 C -3.898438 -5.949219 -3.898438 -5.332031 -3.898438 -4.71875 C -3.898438 -1.710938 -1.503906 0 1.164062 0 C 3.488281 0 6.015625 -1.367188 7.109375 -4.375 L 20.304688 -41.160156 C 21.949219 -45.742188 24.476562 -48.132812 27.554688 -48.132812 C 31.109375 -48.132812 32.066406 -45.398438 30.152344 -40.066406 L 18.1875 -7.179688 C 17.84375 -6.222656 17.640625 -5.332031 17.640625 -4.582031 C 17.640625 -1.640625 20.03125 0 22.632812 0 C 25.023438 0 27.554688 -1.367188 28.648438 -4.445312 L 41.433594 -40.269531 C 43.074219 -44.921875 45.808594 -48.066406 49.160156 -48.066406 C 51.824219 -48.066406 53.605469 -45.742188 52.371094 -42.390625 L 42.800781 -15.929688 C 42.183594 -14.152344 41.84375 -12.238281 41.84375 -10.664062 C 41.84375 -3.898438 47.246094 0 53.878906 0 C 61.398438 0 68.578125 -4.921875 72.816406 -18.253906 C 72.953125 -18.800781 73.089844 -19.28125 73.089844 -19.757812 C 73.089844 -22.152344 71.039062 -23.519531 68.988281 -23.519531 C 67.210938 -23.519531 65.5 -22.496094 64.679688 -20.238281 Z M 64.679688 -20.238281 "/></g></g></g><g fill="#fd6155" fill-opacity="0.302"><g transform="translate(262.528235, 174.696213)"><g><path d="M 42.871094 -23.109375 C 40.953125 -23.109375 38.835938 -21.949219 38.015625 -19.347656 C 35.347656 -10.941406 31.039062 -8.136719 27.964844 -8.136719 C 26.800781 -8.136719 26.117188 -8.75 26.117188 -9.84375 C 26.117188 -10.390625 26.253906 -11.078125 26.460938 -11.828125 L 34.117188 -33.980469 C 34.390625 -34.800781 34.527344 -35.554688 34.527344 -36.238281 C 34.527344 -39.246094 32.066406 -40.816406 29.535156 -40.816406 C 27.621094 -40.816406 25.640625 -39.929688 24.546875 -38.21875 C 23.109375 -39.109375 20.441406 -40.132812 16.957031 -40.132812 C 12.445312 -40.132812 7.519531 -37.671875 5.675781 -32.410156 L -0.753906 -14.015625 C -1.164062 -12.785156 -1.4375 -11.554688 -1.4375 -10.324219 C -1.4375 -4.648438 3.144531 0 9.160156 0 C 12.375 0 15.65625 -1.4375 18.1875 -3.691406 C 20.375 -0.546875 25.230469 0 27.28125 0 C 32.957031 0 40.542969 -2.871094 44.921875 -13.949219 C 45.878906 -16.613281 46.628906 -18.324219 46.628906 -19.554688 C 46.628906 -21.878906 44.851562 -23.109375 42.871094 -23.109375 Z M 20.304688 -23.792969 L 17.023438 -13.605469 C 15.589844 -9.160156 12.992188 -8.136719 11.554688 -8.136719 C 10.050781 -8.136719 9.296875 -9.09375 9.296875 -10.664062 C 9.296875 -11.554688 9.503906 -12.375 9.707031 -12.992188 L 14.085938 -26.734375 C 15.382812 -30.902344 17.296875 -31.449219 18.390625 -31.449219 C 19.691406 -31.449219 21.125 -30.152344 21.125 -27.828125 C 21.125 -26.800781 20.851562 -25.503906 20.304688 -23.792969 Z M 20.304688 -23.792969 "/></g></g></g><g fill="#fd6155" fill-opacity="0.302"><g transform="translate(298.417663, 174.696213)"><g><path d="M 38.152344 -19.691406 C 35.144531 -11.488281 31.382812 -8.136719 28.167969 -8.136719 C 26.9375 -8.136719 26.253906 -8.75 26.253906 -9.914062 C 26.253906 -10.390625 26.390625 -10.941406 26.597656 -11.625 L 31.929688 -26.800781 C 32.410156 -28.167969 32.683594 -29.398438 32.683594 -30.5625 C 32.683594 -36.03125 28.03125 -40.132812 22.5625 -40.132812 C 19.894531 -40.132812 17.777344 -39.519531 16 -38.21875 C 15.589844 -39.449219 13.878906 -40.132812 12.035156 -40.132812 C 10.117188 -40.132812 8.273438 -39.246094 7.589844 -37.332031 L -3.828125 -5.402344 C -4.035156 -4.785156 -4.101562 -4.238281 -4.101562 -3.691406 C -4.101562 -1.164062 -2.121094 0.136719 0.0703125 0.136719 C 2.460938 0.136719 5.195312 -1.367188 6.222656 -4.445312 C 8.613281 -11.078125 11.898438 -20.441406 14.222656 -27.007812 C 16.066406 -30.425781 18.460938 -32.066406 20.375 -32.066406 C 21.605469 -32.066406 22.496094 -31.246094 22.496094 -29.945312 C 22.496094 -29.46875 22.359375 -28.851562 22.152344 -28.238281 L 17.160156 -14.152344 C 16.613281 -12.582031 16.273438 -11.078125 16.273438 -9.640625 C 16.273438 -3.351562 21.46875 0 27.28125 0 C 34.253906 0 41.707031 -4.71875 46.425781 -18.050781 C 46.628906 -18.597656 46.765625 -19.144531 46.765625 -19.621094 C 46.765625 -21.8125 44.785156 -22.972656 42.730469 -22.972656 C 40.886719 -22.972656 38.835938 -21.949219 38.152344 -19.691406 Z M 38.152344 -19.691406 "/></g></g></g><g fill="#fd6155" fill-opacity="0.302"><g transform="translate(334.30709, 174.696213)"><g><path d="M 42.871094 -23.109375 C 40.953125 -23.109375 38.835938 -21.949219 38.015625 -19.347656 C 35.347656 -10.941406 31.039062 -8.136719 27.964844 -8.136719 C 26.800781 -8.136719 26.117188 -8.75 26.117188 -9.84375 C 26.117188 -10.390625 26.253906 -11.078125 26.460938 -11.828125 L 34.117188 -33.980469 C 34.390625 -34.800781 34.527344 -35.554688 34.527344 -36.238281 C 34.527344 -39.246094 32.066406 -40.816406 29.535156 -40.816406 C 27.621094 -40.816406 25.640625 -39.929688 24.546875 -38.21875 C 23.109375 -39.109375 20.441406 -40.132812 16.957031 -40.132812 C 12.445312 -40.132812 7.519531 -37.671875 5.675781 -32.410156 L -0.753906 -14.015625 C -1.164062 -12.785156 -1.4375 -11.554688 -1.4375 -10.324219 C -1.4375 -4.648438 3.144531 0 9.160156 0 C 12.375 0 15.65625 -1.4375 18.1875 -3.691406 C 20.375 -0.546875 25.230469 0 27.28125 0 C 32.957031 0 40.542969 -2.871094 44.921875 -13.949219 C 45.878906 -16.613281 46.628906 -18.324219 46.628906 -19.554688 C 46.628906 -21.878906 44.851562 -23.109375 42.871094 -23.109375 Z M 20.304688 -23.792969 L 17.023438 -13.605469 C 15.589844 -9.160156 12.992188 -8.136719 11.554688 -8.136719 C 10.050781 -8.136719 9.296875 -9.09375 9.296875 -10.664062 C 9.296875 -11.554688 9.503906 -12.375 9.707031 -12.992188 L 14.085938 -26.734375 C 15.382812 -30.902344 17.296875 -31.449219 18.390625 -31.449219 C 19.691406 -31.449219 21.125 -30.152344 21.125 -27.828125 C 21.125 -26.800781 20.851562 -25.503906 20.304688 -23.792969 Z M 20.304688 -23.792969 "/></g></g></g><g fill="#fd6155" fill-opacity="0.302"><g transform="translate(370.196518, 174.696213)"><g><path d="M 26.1875 -5.949219 L 35.621094 -32.410156 C 36.101562 -33.84375 36.304688 -35.007812 36.304688 -35.894531 C 36.304688 -38.972656 34.1875 -39.585938 33.296875 -39.929688 C 32.886719 -40.066406 32.410156 -40.132812 31.929688 -40.132812 C 29.878906 -40.132812 27.757812 -39.109375 26.9375 -36.714844 C 24.613281 -39.175781 22.015625 -40.132812 18.390625 -40.132812 C 13.332031 -40.132812 8 -37.261719 5.742188 -30.902344 L -0.0703125 -14.359375 C -0.546875 -12.921875 -0.820312 -11.417969 -0.820312 -10.050781 C -0.820312 -4.648438 2.941406 -1.027344 7.589844 0 C 1.230469 1.230469 -6.90625 3.691406 -8.957031 10.460938 C -9.296875 11.625 -9.433594 12.648438 -9.433594 13.675781 C -9.433594 20.304688 -3.28125 24.683594 3.417969 24.683594 C 10.1875 24.683594 16.546875 21.058594 19.347656 13.128906 L 22.496094 4.445312 C 32.273438 1.367188 42.320312 -3.964844 47.039062 -18.324219 C 47.246094 -18.871094 47.3125 -19.417969 47.3125 -19.894531 C 47.3125 -22.222656 45.535156 -23.589844 43.484375 -23.589844 C 41.636719 -23.589844 39.65625 -22.425781 38.699219 -19.757812 C 36.167969 -12.785156 31.585938 -8.683594 26.1875 -5.949219 Z M 23.246094 -27.074219 L 18.050781 -12.648438 C 16.683594 -10.050781 14.359375 -8.136719 12.035156 -8.136719 C 10.390625 -8.136719 9.160156 -8.957031 9.160156 -10.460938 C 9.160156 -10.804688 9.296875 -11.351562 9.433594 -11.828125 L 15.589844 -29.195312 C 16.273438 -31.109375 17.84375 -32.066406 19.347656 -32.066406 C 21.46875 -32.066406 23.316406 -30.492188 23.316406 -28.03125 C 23.316406 -27.757812 23.316406 -27.417969 23.246094 -27.074219 Z M 9.980469 7.589844 L 8.339844 12.238281 C 7.382812 14.769531 5.265625 16.066406 3.214844 16.066406 C 1.640625 16.066406 0.890625 15.109375 0.890625 13.878906 C 0.890625 13.46875 1.027344 12.921875 1.230469 12.445312 C 2.1875 10.050781 5.539062 8.75 9.980469 7.589844 Z M 9.980469 7.589844 "/></g></g></g><g fill="#fd6155" fill-opacity="0.302"><g transform="translate(406.701186, 174.696213)"><g><path d="M 34.597656 -19.28125 C 31.585938 -11.351562 24.410156 -8.136719 18.597656 -8.136719 C 13.605469 -8.136719 10.460938 -10.527344 10.460938 -13.675781 C 10.460938 -14.289062 10.527344 -14.90625 10.804688 -15.589844 L 11.351562 -16.886719 C 13.332031 -15.65625 15.792969 -14.835938 18.527344 -14.835938 C 24.75 -14.835938 30.21875 -18.734375 32.066406 -24.886719 C 32.410156 -26.1875 32.613281 -27.484375 32.613281 -28.648438 C 32.613281 -35.144531 27.484375 -40.132812 19.757812 -40.132812 C 13.675781 -40.132812 7.726562 -36.578125 5.332031 -29.742188 L 1.300781 -18.050781 C 0.753906 -16.410156 0.410156 -14.769531 0.410156 -13.195312 C 0.410156 -5.058594 8.066406 0 18.050781 0 C 27.554688 0 38.355469 -4.648438 42.871094 -17.707031 C 43.074219 -18.253906 43.144531 -18.734375 43.144531 -19.144531 C 43.144531 -21.261719 41.226562 -22.425781 39.175781 -22.425781 C 37.261719 -22.425781 35.210938 -21.398438 34.597656 -19.28125 Z M 19.554688 -32.066406 C 21.46875 -32.066406 22.699219 -30.492188 22.699219 -28.511719 C 22.699219 -27.964844 22.632812 -27.417969 22.425781 -26.871094 C 21.742188 -24.613281 19.691406 -23.792969 17.640625 -23.792969 C 16.339844 -23.792969 15.042969 -24.066406 14.085938 -24.613281 L 15.519531 -28.714844 C 16.273438 -30.835938 17.980469 -32.066406 19.554688 -32.066406 Z M 19.554688 -32.066406 "/></g></g></g><g fill="#fd6155" fill-opacity="0.502"><g transform="translate(197.459003, 173.211405)"><g><path d="M 64.679688 -20.238281 C 61.738281 -12.238281 58.046875 -8.683594 54.835938 -8.683594 C 53.464844 -8.683594 52.578125 -9.570312 52.578125 -10.941406 C 52.578125 -11.554688 52.78125 -12.308594 53.054688 -13.128906 L 64.0625 -43.210938 C 64.613281 -44.648438 64.953125 -46.21875 64.953125 -48.132812 C 64.953125 -54.5625 60.234375 -59.347656 53.261719 -59.347656 C 49.160156 -59.347656 44.238281 -57.707031 41.023438 -54.355469 C 38.902344 -57.570312 36.851562 -59.347656 32.203125 -59.347656 C 27.828125 -59.347656 24.957031 -56.613281 24.683594 -56.269531 C 24.136719 -57.980469 22.222656 -59.347656 19.621094 -59.347656 C 17.640625 -59.347656 14.90625 -58.527344 13.949219 -55.859375 L -3.625 -6.632812 C -3.898438 -5.949219 -3.898438 -5.332031 -3.898438 -4.71875 C -3.898438 -1.710938 -1.503906 0 1.164062 0 C 3.488281 0 6.015625 -1.367188 7.109375 -4.375 L 20.304688 -41.160156 C 21.949219 -45.742188 24.476562 -48.132812 27.554688 -48.132812 C 31.109375 -48.132812 32.066406 -45.398438 30.152344 -40.066406 L 18.1875 -7.179688 C 17.84375 -6.222656 17.640625 -5.332031 17.640625 -4.582031 C 17.640625 -1.640625 20.03125 0 22.632812 0 C 25.023438 0 27.554688 -1.367188 28.648438 -4.445312 L 41.433594 -40.269531 C 43.074219 -44.921875 45.808594 -48.066406 49.160156 -48.066406 C 51.824219 -48.066406 53.605469 -45.742188 52.371094 -42.390625 L 42.800781 -15.929688 C 42.183594 -14.152344 41.84375 -12.238281 41.84375 -10.664062 C 41.84375 -3.898438 47.246094 0 53.878906 0 C 61.398438 0 68.578125 -4.921875 72.816406 -18.253906 C 72.953125 -18.800781 73.089844 -19.28125 73.089844 -19.757812 C 73.089844 -22.152344 71.039062 -23.519531 68.988281 -23.519531 C 67.210938 -23.519531 65.5 -22.496094 64.679688 -20.238281 Z M 64.679688 -20.238281 "/></g></g></g><g fill="#fd6155" fill-opacity="0.502"><g transform="translate(259.735709, 173.211405)"><g><path d="M 42.871094 -23.109375 C 40.953125 -23.109375 38.835938 -21.949219 38.015625 -19.347656 C 35.347656 -10.941406 31.039062 -8.136719 27.964844 -8.136719 C 26.800781 -8.136719 26.117188 -8.75 26.117188 -9.84375 C 26.117188 -10.390625 26.253906 -11.078125 26.460938 -11.828125 L 34.117188 -33.980469 C 34.390625 -34.800781 34.527344 -35.554688 34.527344 -36.238281 C 34.527344 -39.246094 32.066406 -40.816406 29.535156 -40.816406 C 27.621094 -40.816406 25.640625 -39.929688 24.546875 -38.21875 C 23.109375 -39.109375 20.441406 -40.132812 16.957031 -40.132812 C 12.445312 -40.132812 7.519531 -37.671875 5.675781 -32.410156 L -0.753906 -14.015625 C -1.164062 -12.785156 -1.4375 -11.554688 -1.4375 -10.324219 C -1.4375 -4.648438 3.144531 0 9.160156 0 C 12.375 0 15.65625 -1.4375 18.1875 -3.691406 C 20.375 -0.546875 25.230469 0 27.28125 0 C 32.957031 0 40.542969 -2.871094 44.921875 -13.949219 C 45.878906 -16.613281 46.628906 -18.324219 46.628906 -19.554688 C 46.628906 -21.878906 44.851562 -23.109375 42.871094 -23.109375 Z M 20.304688 -23.792969 L 17.023438 -13.605469 C 15.589844 -9.160156 12.992188 -8.136719 11.554688 -8.136719 C 10.050781 -8.136719 9.296875 -9.09375 9.296875 -10.664062 C 9.296875 -11.554688 9.503906 -12.375 9.707031 -12.992188 L 14.085938 -26.734375 C 15.382812 -30.902344 17.296875 -31.449219 18.390625 -31.449219 C 19.691406 -31.449219 21.125 -30.152344 21.125 -27.828125 C 21.125 -26.800781 20.851562 -25.503906 20.304688 -23.792969 Z M 20.304688 -23.792969 "/></g></g></g><g fill="#fd6155" fill-opacity="0.502"><g transform="translate(295.625137, 173.211405)"><g><path d="M 38.152344 -19.691406 C 35.144531 -11.488281 31.382812 -8.136719 28.167969 -8.136719 C 26.9375 -8.136719 26.253906 -8.75 26.253906 -9.914062 C 26.253906 -10.390625 26.390625 -10.941406 26.597656 -11.625 L 31.929688 -26.800781 C 32.410156 -28.167969 32.683594 -29.398438 32.683594 -30.5625 C 32.683594 -36.03125 28.03125 -40.132812 22.5625 -40.132812 C 19.894531 -40.132812 17.777344 -39.519531 16 -38.21875 C 15.589844 -39.449219 13.878906 -40.132812 12.035156 -40.132812 C 10.117188 -40.132812 8.273438 -39.246094 7.589844 -37.332031 L -3.828125 -5.402344 C -4.035156 -4.785156 -4.101562 -4.238281 -4.101562 -3.691406 C -4.101562 -1.164062 -2.121094 0.136719 0.0703125 0.136719 C 2.460938 0.136719 5.195312 -1.367188 6.222656 -4.445312 C 8.613281 -11.078125 11.898438 -20.441406 14.222656 -27.007812 C 16.066406 -30.425781 18.460938 -32.066406 20.375 -32.066406 C 21.605469 -32.066406 22.496094 -31.246094 22.496094 -29.945312 C 22.496094 -29.46875 22.359375 -28.851562 22.152344 -28.238281 L 17.160156 -14.152344 C 16.613281 -12.582031 16.273438 -11.078125 16.273438 -9.640625 C 16.273438 -3.351562 21.46875 0 27.28125 0 C 34.253906 0 41.707031 -4.71875 46.425781 -18.050781 C 46.628906 -18.597656 46.765625 -19.144531 46.765625 -19.621094 C 46.765625 -21.8125 44.785156 -22.972656 42.730469 -22.972656 C 40.886719 -22.972656 38.835938 -21.949219 38.152344 -19.691406 Z M 38.152344 -19.691406 "/></g></g></g><g fill="#fd6155" fill-opacity="0.502"><g transform="translate(331.514564, 173.211405)"><g><path d="M 42.871094 -23.109375 C 40.953125 -23.109375 38.835938 -21.949219 38.015625 -19.347656 C 35.347656 -10.941406 31.039062 -8.136719 27.964844 -8.136719 C 26.800781 -8.136719 26.117188 -8.75 26.117188 -9.84375 C 26.117188 -10.390625 26.253906 -11.078125 26.460938 -11.828125 L 34.117188 -33.980469 C 34.390625 -34.800781 34.527344 -35.554688 34.527344 -36.238281 C 34.527344 -39.246094 32.066406 -40.816406 29.535156 -40.816406 C 27.621094 -40.816406 25.640625 -39.929688 24.546875 -38.21875 C 23.109375 -39.109375 20.441406 -40.132812 16.957031 -40.132812 C 12.445312 -40.132812 7.519531 -37.671875 5.675781 -32.410156 L -0.753906 -14.015625 C -1.164062 -12.785156 -1.4375 -11.554688 -1.4375 -10.324219 C -1.4375 -4.648438 3.144531 0 9.160156 0 C 12.375 0 15.65625 -1.4375 18.1875 -3.691406 C 20.375 -0.546875 25.230469 0 27.28125 0 C 32.957031 0 40.542969 -2.871094 44.921875 -13.949219 C 45.878906 -16.613281 46.628906 -18.324219 46.628906 -19.554688 C 46.628906 -21.878906 44.851562 -23.109375 42.871094 -23.109375 Z M 20.304688 -23.792969 L 17.023438 -13.605469 C 15.589844 -9.160156 12.992188 -8.136719 11.554688 -8.136719 C 10.050781 -8.136719 9.296875 -9.09375 9.296875 -10.664062 C 9.296875 -11.554688 9.503906 -12.375 9.707031 -12.992188 L 14.085938 -26.734375 C 15.382812 -30.902344 17.296875 -31.449219 18.390625 -31.449219 C 19.691406 -31.449219 21.125 -30.152344 21.125 -27.828125 C 21.125 -26.800781 20.851562 -25.503906 20.304688 -23.792969 Z M 20.304688 -23.792969 "/></g></g></g><g fill="#fd6155" fill-opacity="0.502"><g transform="translate(367.403992, 173.211405)"><g><path d="M 26.1875 -5.949219 L 35.621094 -32.410156 C 36.101562 -33.84375 36.304688 -35.007812 36.304688 -35.894531 C 36.304688 -38.972656 34.1875 -39.585938 33.296875 -39.929688 C 32.886719 -40.066406 32.410156 -40.132812 31.929688 -40.132812 C 29.878906 -40.132812 27.757812 -39.109375 26.9375 -36.714844 C 24.613281 -39.175781 22.015625 -40.132812 18.390625 -40.132812 C 13.332031 -40.132812 8 -37.261719 5.742188 -30.902344 L -0.0703125 -14.359375 C -0.546875 -12.921875 -0.820312 -11.417969 -0.820312 -10.050781 C -0.820312 -4.648438 2.941406 -1.027344 7.589844 0 C 1.230469 1.230469 -6.90625 3.691406 -8.957031 10.460938 C -9.296875 11.625 -9.433594 12.648438 -9.433594 13.675781 C -9.433594 20.304688 -3.28125 24.683594 3.417969 24.683594 C 10.1875 24.683594 16.546875 21.058594 19.347656 13.128906 L 22.496094 4.445312 C 32.273438 1.367188 42.320312 -3.964844 47.039062 -18.324219 C 47.246094 -18.871094 47.3125 -19.417969 47.3125 -19.894531 C 47.3125 -22.222656 45.535156 -23.589844 43.484375 -23.589844 C 41.636719 -23.589844 39.65625 -22.425781 38.699219 -19.757812 C 36.167969 -12.785156 31.585938 -8.683594 26.1875 -5.949219 Z M 23.246094 -27.074219 L 18.050781 -12.648438 C 16.683594 -10.050781 14.359375 -8.136719 12.035156 -8.136719 C 10.390625 -8.136719 9.160156 -8.957031 9.160156 -10.460938 C 9.160156 -10.804688 9.296875 -11.351562 9.433594 -11.828125 L 15.589844 -29.195312 C 16.273438 -31.109375 17.84375 -32.066406 19.347656 -32.066406 C 21.46875 -32.066406 23.316406 -30.492188 23.316406 -28.03125 C 23.316406 -27.757812 23.316406 -27.417969 23.246094 -27.074219 Z M 9.980469 7.589844 L 8.339844 12.238281 C 7.382812 14.769531 5.265625 16.066406 3.214844 16.066406 C 1.640625 16.066406 0.890625 15.109375 0.890625 13.878906 C 0.890625 13.46875 1.027344 12.921875 1.230469 12.445312 C 2.1875 10.050781 5.539062 8.75 9.980469 7.589844 Z M 9.980469 7.589844 "/></g></g></g><g fill="#fd6155" fill-opacity="0.502"><g transform="translate(403.90866, 173.211405)"><g><path d="M 34.597656 -19.28125 C 31.585938 -11.351562 24.410156 -8.136719 18.597656 -8.136719 C 13.605469 -8.136719 10.460938 -10.527344 10.460938 -13.675781 C 10.460938 -14.289062 10.527344 -14.90625 10.804688 -15.589844 L 11.351562 -16.886719 C 13.332031 -15.65625 15.792969 -14.835938 18.527344 -14.835938 C 24.75 -14.835938 30.21875 -18.734375 32.066406 -24.886719 C 32.410156 -26.1875 32.613281 -27.484375 32.613281 -28.648438 C 32.613281 -35.144531 27.484375 -40.132812 19.757812 -40.132812 C 13.675781 -40.132812 7.726562 -36.578125 5.332031 -29.742188 L 1.300781 -18.050781 C 0.753906 -16.410156 0.410156 -14.769531 0.410156 -13.195312 C 0.410156 -5.058594 8.066406 0 18.050781 0 C 27.554688 0 38.355469 -4.648438 42.871094 -17.707031 C 43.074219 -18.253906 43.144531 -18.734375 43.144531 -19.144531 C 43.144531 -21.261719 41.226562 -22.425781 39.175781 -22.425781 C 37.261719 -22.425781 35.210938 -21.398438 34.597656 -19.28125 Z M 19.554688 -32.066406 C 21.46875 -32.066406 22.699219 -30.492188 22.699219 -28.511719 C 22.699219 -27.964844 22.632812 -27.417969 22.425781 -26.871094 C 21.742188 -24.613281 19.691406 -23.792969 17.640625 -23.792969 C 16.339844 -23.792969 15.042969 -24.066406 14.085938 -24.613281 L 15.519531 -28.714844 C 16.273438 -30.835938 17.980469 -32.066406 19.554688 -32.066406 Z M 19.554688 -32.066406 "/></g></g></g><g fill="#ff3131" fill-opacity="1"><g transform="translate(194.666492, 171.726597)"><g><path d="M 64.679688 -20.238281 C 61.738281 -12.238281 58.046875 -8.683594 54.835938 -8.683594 C 53.464844 -8.683594 52.578125 -9.570312 52.578125 -10.941406 C 52.578125 -11.554688 52.78125 -12.308594 53.054688 -13.128906 L 64.0625 -43.210938 C 64.613281 -44.648438 64.953125 -46.21875 64.953125 -48.132812 C 64.953125 -54.5625 60.234375 -59.347656 53.261719 -59.347656 C 49.160156 -59.347656 44.238281 -57.707031 41.023438 -54.355469 C 38.902344 -57.570312 36.851562 -59.347656 32.203125 -59.347656 C 27.828125 -59.347656 24.957031 -56.613281 24.683594 -56.269531 C 24.136719 -57.980469 22.222656 -59.347656 19.621094 -59.347656 C 17.640625 -59.347656 14.90625 -58.527344 13.949219 -55.859375 L -3.625 -6.632812 C -3.898438 -5.949219 -3.898438 -5.332031 -3.898438 -4.71875 C -3.898438 -1.710938 -1.503906 0 1.164062 0 C 3.488281 0 6.015625 -1.367188 7.109375 -4.375 L 20.304688 -41.160156 C 21.949219 -45.742188 24.476562 -48.132812 27.554688 -48.132812 C 31.109375 -48.132812 32.066406 -45.398438 30.152344 -40.066406 L 18.1875 -7.179688 C 17.84375 -6.222656 17.640625 -5.332031 17.640625 -4.582031 C 17.640625 -1.640625 20.03125 0 22.632812 0 C 25.023438 0 27.554688 -1.367188 28.648438 -4.445312 L 41.433594 -40.269531 C 43.074219 -44.921875 45.808594 -48.066406 49.160156 -48.066406 C 51.824219 -48.066406 53.605469 -45.742188 52.371094 -42.390625 L 42.800781 -15.929688 C 42.183594 -14.152344 41.84375 -12.238281 41.84375 -10.664062 C 41.84375 -3.898438 47.246094 0 53.878906 0 C 61.398438 0 68.578125 -4.921875 72.816406 -18.253906 C 72.953125 -18.800781 73.089844 -19.28125 73.089844 -19.757812 C 73.089844 -22.152344 71.039062 -23.519531 68.988281 -23.519531 C 67.210938 -23.519531 65.5 -22.496094 64.679688 -20.238281 Z M 64.679688 -20.238281 "/></g></g></g><g fill="#ff3131" fill-opacity="1"><g transform="translate(256.943198, 171.726597)"><g><path d="M 42.871094 -23.109375 C 40.953125 -23.109375 38.835938 -21.949219 38.015625 -19.347656 C 35.347656 -10.941406 31.039062 -8.136719 27.964844 -8.136719 C 26.800781 -8.136719 26.117188 -8.75 26.117188 -9.84375 C 26.117188 -10.390625 26.253906 -11.078125 26.460938 -11.828125 L 34.117188 -33.980469 C 34.390625 -34.800781 34.527344 -35.554688 34.527344 -36.238281 C 34.527344 -39.246094 32.066406 -40.816406 29.535156 -40.816406 C 27.621094 -40.816406 25.640625 -39.929688 24.546875 -38.21875 C 23.109375 -39.109375 20.441406 -40.132812 16.957031 -40.132812 C 12.445312 -40.132812 7.519531 -37.671875 5.675781 -32.410156 L -0.753906 -14.015625 C -1.164062 -12.785156 -1.4375 -11.554688 -1.4375 -10.324219 C -1.4375 -4.648438 3.144531 0 9.160156 0 C 12.375 0 15.65625 -1.4375 18.1875 -3.691406 C 20.375 -0.546875 25.230469 0 27.28125 0 C 32.957031 0 40.542969 -2.871094 44.921875 -13.949219 C 45.878906 -16.613281 46.628906 -18.324219 46.628906 -19.554688 C 46.628906 -21.878906 44.851562 -23.109375 42.871094 -23.109375 Z M 20.304688 -23.792969 L 17.023438 -13.605469 C 15.589844 -9.160156 12.992188 -8.136719 11.554688 -8.136719 C 10.050781 -8.136719 9.296875 -9.09375 9.296875 -10.664062 C 9.296875 -11.554688 9.503906 -12.375 9.707031 -12.992188 L 14.085938 -26.734375 C 15.382812 -30.902344 17.296875 -31.449219 18.390625 -31.449219 C 19.691406 -31.449219 21.125 -30.152344 21.125 -27.828125 C 21.125 -26.800781 20.851562 -25.503906 20.304688 -23.792969 Z M 20.304688 -23.792969 "/></g></g></g><g fill="#ff3131" fill-opacity="1"><g transform="translate(292.832625, 171.726597)"><g><path d="M 38.152344 -19.691406 C 35.144531 -11.488281 31.382812 -8.136719 28.167969 -8.136719 C 26.9375 -8.136719 26.253906 -8.75 26.253906 -9.914062 C 26.253906 -10.390625 26.390625 -10.941406 26.597656 -11.625 L 31.929688 -26.800781 C 32.410156 -28.167969 32.683594 -29.398438 32.683594 -30.5625 C 32.683594 -36.03125 28.03125 -40.132812 22.5625 -40.132812 C 19.894531 -40.132812 17.777344 -39.519531 16 -38.21875 C 15.589844 -39.449219 13.878906 -40.132812 12.035156 -40.132812 C 10.117188 -40.132812 8.273438 -39.246094 7.589844 -37.332031 L -3.828125 -5.402344 C -4.035156 -4.785156 -4.101562 -4.238281 -4.101562 -3.691406 C -4.101562 -1.164062 -2.121094 0.136719 0.0703125 0.136719 C 2.460938 0.136719 5.195312 -1.367188 6.222656 -4.445312 C 8.613281 -11.078125 11.898438 -20.441406 14.222656 -27.007812 C 16.066406 -30.425781 18.460938 -32.066406 20.375 -32.066406 C 21.605469 -32.066406 22.496094 -31.246094 22.496094 -29.945312 C 22.496094 -29.46875 22.359375 -28.851562 22.152344 -28.238281 L 17.160156 -14.152344 C 16.613281 -12.582031 16.273438 -11.078125 16.273438 -9.640625 C 16.273438 -3.351562 21.46875 0 27.28125 0 C 34.253906 0 41.707031 -4.71875 46.425781 -18.050781 C 46.628906 -18.597656 46.765625 -19.144531 46.765625 -19.621094 C 46.765625 -21.8125 44.785156 -22.972656 42.730469 -22.972656 C 40.886719 -22.972656 38.835938 -21.949219 38.152344 -19.691406 Z M 38.152344 -19.691406 "/></g></g></g><g fill="#ff3131" fill-opacity="1"><g transform="translate(328.722053, 171.726597)"><g><path d="M 42.871094 -23.109375 C 40.953125 -23.109375 38.835938 -21.949219 38.015625 -19.347656 C 35.347656 -10.941406 31.039062 -8.136719 27.964844 -8.136719 C 26.800781 -8.136719 26.117188 -8.75 26.117188 -9.84375 C 26.117188 -10.390625 26.253906 -11.078125 26.460938 -11.828125 L 34.117188 -33.980469 C 34.390625 -34.800781 34.527344 -35.554688 34.527344 -36.238281 C 34.527344 -39.246094 32.066406 -40.816406 29.535156 -40.816406 C 27.621094 -40.816406 25.640625 -39.929688 24.546875 -38.21875 C 23.109375 -39.109375 20.441406 -40.132812 16.957031 -40.132812 C 12.445312 -40.132812 7.519531 -37.671875 5.675781 -32.410156 L -0.753906 -14.015625 C -1.164062 -12.785156 -1.4375 -11.554688 -1.4375 -10.324219 C -1.4375 -4.648438 3.144531 0 9.160156 0 C 12.375 0 15.65625 -1.4375 18.1875 -3.691406 C 20.375 -0.546875 25.230469 0 27.28125 0 C 32.957031 0 40.542969 -2.871094 44.921875 -13.949219 C 45.878906 -16.613281 46.628906 -18.324219 46.628906 -19.554688 C 46.628906 -21.878906 44.851562 -23.109375 42.871094 -23.109375 Z M 20.304688 -23.792969 L 17.023438 -13.605469 C 15.589844 -9.160156 12.992188 -8.136719 11.554688 -8.136719 C 10.050781 -8.136719 9.296875 -9.09375 9.296875 -10.664062 C 9.296875 -11.554688 9.503906 -12.375 9.707031 -12.992188 L 14.085938 -26.734375 C 15.382812 -30.902344 17.296875 -31.449219 18.390625 -31.449219 C 19.691406 -31.449219 21.125 -30.152344 21.125 -27.828125 C 21.125 -26.800781 20.851562 -25.503906 20.304688 -23.792969 Z M 20.304688 -23.792969 "/></g></g></g><g fill="#ff3131" fill-opacity="1"><g transform="translate(364.61148, 171.726597)"><g><path d="M 26.1875 -5.949219 L 35.621094 -32.410156 C 36.101562 -33.84375 36.304688 -35.007812 36.304688 -35.894531 C 36.304688 -38.972656 34.1875 -39.585938 33.296875 -39.929688 C 32.886719 -40.066406 32.410156 -40.132812 31.929688 -40.132812 C 29.878906 -40.132812 27.757812 -39.109375 26.9375 -36.714844 C 24.613281 -39.175781 22.015625 -40.132812 18.390625 -40.132812 C 13.332031 -40.132812 8 -37.261719 5.742188 -30.902344 L -0.0703125 -14.359375 C -0.546875 -12.921875 -0.820312 -11.417969 -0.820312 -10.050781 C -0.820312 -4.648438 2.941406 -1.027344 7.589844 0 C 1.230469 1.230469 -6.90625 3.691406 -8.957031 10.460938 C -9.296875 11.625 -9.433594 12.648438 -9.433594 13.675781 C -9.433594 20.304688 -3.28125 24.683594 3.417969 24.683594 C 10.1875 24.683594 16.546875 21.058594 19.347656 13.128906 L 22.496094 4.445312 C 32.273438 1.367188 42.320312 -3.964844 47.039062 -18.324219 C 47.246094 -18.871094 47.3125 -19.417969 47.3125 -19.894531 C 47.3125 -22.222656 45.535156 -23.589844 43.484375 -23.589844 C 41.636719 -23.589844 39.65625 -22.425781 38.699219 -19.757812 C 36.167969 -12.785156 31.585938 -8.683594 26.1875 -5.949219 Z M 23.246094 -27.074219 L 18.050781 -12.648438 C 16.683594 -10.050781 14.359375 -8.136719 12.035156 -8.136719 C 10.390625 -8.136719 9.160156 -8.957031 9.160156 -10.460938 C 9.160156 -10.804688 9.296875 -11.351562 9.433594 -11.828125 L 15.589844 -29.195312 C 16.273438 -31.109375 17.84375 -32.066406 19.347656 -32.066406 C 21.46875 -32.066406 23.316406 -30.492188 23.316406 -28.03125 C 23.316406 -27.757812 23.316406 -27.417969 23.246094 -27.074219 Z M 9.980469 7.589844 L 8.339844 12.238281 C 7.382812 14.769531 5.265625 16.066406 3.214844 16.066406 C 1.640625 16.066406 0.890625 15.109375 0.890625 13.878906 C 0.890625 13.46875 1.027344 12.921875 1.230469 12.445312 C 2.1875 10.050781 5.539062 8.75 9.980469 7.589844 Z M 9.980469 7.589844 "/></g></g></g><g fill="#ff3131" fill-opacity="1"><g transform="translate(401.116149, 171.726597)"><g><path d="M 34.597656 -19.28125 C 31.585938 -11.351562 24.410156 -8.136719 18.597656 -8.136719 C 13.605469 -8.136719 10.460938 -10.527344 10.460938 -13.675781 C 10.460938 -14.289062 10.527344 -14.90625 10.804688 -15.589844 L 11.351562 -16.886719 C 13.332031 -15.65625 15.792969 -14.835938 18.527344 -14.835938 C 24.75 -14.835938 30.21875 -18.734375 32.066406 -24.886719 C 32.410156 -26.1875 32.613281 -27.484375 32.613281 -28.648438 C 32.613281 -35.144531 27.484375 -40.132812 19.757812 -40.132812 C 13.675781 -40.132812 7.726562 -36.578125 5.332031 -29.742188 L 1.300781 -18.050781 C 0.753906 -16.410156 0.410156 -14.769531 0.410156 -13.195312 C 0.410156 -5.058594 8.066406 0 18.050781 0 C 27.554688 0 38.355469 -4.648438 42.871094 -17.707031 C 43.074219 -18.253906 43.144531 -18.734375 43.144531 -19.144531 C 43.144531 -21.261719 41.226562 -22.425781 39.175781 -22.425781 C 37.261719 -22.425781 35.210938 -21.398438 34.597656 -19.28125 Z M 19.554688 -32.066406 C 21.46875 -32.066406 22.699219 -30.492188 22.699219 -28.511719 C 22.699219 -27.964844 22.632812 -27.417969 22.425781 -26.871094 C 21.742188 -24.613281 19.691406 -23.792969 17.640625 -23.792969 C 16.339844 -23.792969 15.042969 -24.066406 14.085938 -24.613281 L 15.519531 -28.714844 C 16.273438 -30.835938 17.980469 -32.066406 19.554688 -32.066406 Z M 19.554688 -32.066406 "/></g></g></g></svg>